<svg width="1834" height="385" viewBox="0 0 1834 385" fill="none" xmlns="http://www.w3.org/2000/svg">
<path d="M99.13 192.5C150.7 192.5 192.5 150.7 192.5 99.13V0C86.19 0 0 86.19 0 192.5C0 192.5 60.22 192.5 99.13 192.5Z" fill="white"></path>
<path d="M192.5 285.87C192.5 234.3 234.3 192.5 285.87 192.5H385C385 298.81 298.81 385 192.5 385C192.5 385 192.5 324.78 192.5 285.87Z" fill="white"></path>
<path d="M99.13 192.5C150.7 192.5 192.5 234.3 192.5 285.87V385C86.19 385 0 298.81 0 192.5C0 192.5 60.22 192.5 99.13 192.5Z" fill="white"></path>
<path d="M367.04 67.8C360.31 71.89 353.54 72.8 347 73.91C336.99 75.61 330.88 76.27 319.54 80.02C306.14 84.45 296.99 90.66 296.99 90.66C296.99 90.66 307.2 80.79 322.55 74.72C334.08 70.16 341 69.1 351.14 65.61C358.49 63.08 363.77 60.56 368.52 56.31C370.69 43.7 379.15 27.08 379.15 27.08C280.95 27.08 195.41 115.68 195.41 213.88C195.41 213.88 199.17 196.04 207.05 183.41C211.84 175.73 220.01 164.93 230.28 156.82C240.84 148.48 257.93 140.01 267.39 137.41C291.22 130.85 307.57 133.01 322.67 128.75C335.65 125.09 351.98 116.67 359.78 99.94C364.59 89.61 365.6 80.4 367.04 67.8Z" fill="white"></path>
<path d="M637 209.25C635.167 217.083 632.083 224.5 627.75 231.5C623.417 238.5 618.083 244.583 611.75 249.75C605.583 254.917 598.417 259 590.25 262C582.25 265 573.583 266.5 564.25 266.5C553.75 266.5 543.917 264.583 534.75 260.75C525.75 256.917 517.917 251.667 511.25 245C504.75 238.167 499.583 230.25 495.75 221.25C491.917 212.25 490 202.583 490 192.25C490 182.083 491.833 172.5 495.5 163.5C499.333 154.5 504.5 146.667 511 140C517.667 133.333 525.417 128.083 534.25 124.25C543.25 120.417 552.917 118.5 563.25 118.5C572.417 118.5 581.083 120 589.25 123C597.417 125.833 604.667 129.833 611 135C617.5 140 622.917 146.083 627.25 153.25C631.75 160.417 634.917 168.25 636.75 176.75H594.75C593.583 174.417 592.167 172.083 590.5 169.75C588.833 167.417 586.833 165.333 584.5 163.5C582.167 161.667 579.333 160.167 576 159C572.833 157.833 569.083 157.25 564.75 157.25C559.75 157.083 555.25 157.917 551.25 159.75C547.25 161.417 543.75 163.833 540.75 167C537.917 170.167 535.667 174 534 178.5C532.5 182.833 531.75 187.5 531.75 192.5C531.75 197.5 532.5 202.167 534 206.5C535.667 210.833 537.917 214.583 540.75 217.75C543.75 220.917 547.25 223.417 551.25 225.25C555.25 226.917 559.75 227.75 564.75 227.75C569.083 227.75 572.833 227.167 576 226C579.333 224.833 582.167 223.417 584.5 221.75C586.833 219.917 588.833 217.917 590.5 215.75C592.167 213.583 593.583 211.417 594.75 209.25H637Z" fill="white"></path>
<path d="M699.836 192.5C699.836 197.5 700.669 202.167 702.336 206.5C704.169 210.833 706.586 214.583 709.586 217.75C712.753 220.75 716.336 223.167 720.336 225C724.336 226.667 728.586 227.5 733.086 227.5C737.586 227.5 741.836 226.667 745.836 225C749.836 223.167 753.336 220.75 756.336 217.75C759.503 214.583 761.919 210.833 763.586 206.5C765.419 202.167 766.336 197.5 766.336 192.5C766.336 187.5 765.419 182.833 763.586 178.5C761.919 174.167 759.503 170.5 756.336 167.5C753.336 164.333 749.836 161.917 745.836 160.25C741.836 158.417 737.586 157.5 733.086 157.5C728.586 157.5 724.336 158.417 720.336 160.25C716.336 161.917 712.753 164.333 709.586 167.5C706.586 170.5 704.169 174.167 702.336 178.5C700.669 182.833 699.836 187.5 699.836 192.5ZM658.336 192.5C658.336 184 659.836 175.417 662.836 166.75C666.003 157.917 670.669 150 676.836 143C683.003 135.833 690.753 130 700.086 125.5C709.419 121 720.419 118.75 733.086 118.75C745.753 118.75 756.753 121 766.086 125.5C775.419 130 783.169 135.833 789.336 143C795.503 150 800.086 157.917 803.086 166.75C806.253 175.417 807.836 184 807.836 192.5C807.836 201 806.253 209.667 803.086 218.5C800.086 227.167 795.503 235.083 789.336 242.25C783.169 249.25 775.419 255 766.086 259.5C756.753 264 745.753 266.25 733.086 266.25C720.419 266.25 709.419 264 700.086 259.5C690.753 255 683.003 249.25 676.836 242.25C670.669 235.083 666.003 227.167 662.836 218.5C659.836 209.667 658.336 201 658.336 192.5Z" fill="white"></path>
<path d="M910.84 228C916.34 228 921.173 227 925.34 225C929.673 223 933.34 220.333 936.34 217C939.34 213.667 941.59 209.917 943.09 205.75C944.757 201.417 945.59 197.083 945.59 192.75C945.59 188.583 944.84 184.417 943.34 180.25C941.84 176.083 939.59 172.333 936.59 169C933.757 165.5 930.173 162.667 925.84 160.5C921.507 158.333 916.507 157.25 910.84 157.25C905.173 157.25 900.173 158.333 895.84 160.5C891.507 162.667 887.84 165.5 884.84 169C882.007 172.333 879.84 176.083 878.34 180.25C876.84 184.417 876.09 188.583 876.09 192.75C876.09 197.083 876.84 201.417 878.34 205.75C880.007 209.917 882.34 213.667 885.34 217C888.34 220.333 891.923 223 896.09 225C900.423 227 905.34 228 910.84 228ZM836.34 123.25H875.34V138.5H876.09C880.257 133.167 885.84 128.5 892.84 124.5C899.84 120.5 908.673 118.5 919.34 118.5C931.673 118.5 942.09 120.917 950.59 125.75C959.257 130.583 966.257 136.75 971.59 144.25C977.09 151.583 981.007 159.75 983.34 168.75C985.84 177.583 987.09 186 987.09 194C987.09 204 985.423 213.417 982.09 222.25C978.757 231.083 974.09 238.833 968.09 245.5C962.09 252 954.923 257.167 946.59 261C938.423 264.833 929.423 266.75 919.59 266.75C913.257 266.75 907.757 266.083 903.09 264.75C898.59 263.417 894.59 261.833 891.09 260C887.757 258.167 885.007 256.333 882.84 254.5C880.673 252.5 879.007 250.833 877.84 249.5V308.25H836.34V123.25Z" fill="white"></path>
<path d="M1139.02 123.25L1069.52 308.25H1025.52L1047.52 255L996.023 123.25H1040.27L1068.02 203.75H1068.52L1095.02 123.25H1139.02Z" fill="white"></path>
<path d="M1218.33 162.25C1218.33 161.583 1218.16 160.667 1217.83 159.5C1217.66 158.167 1217.16 157 1216.33 156C1215.49 154.833 1214.16 153.833 1212.33 153C1210.66 152.167 1208.33 151.75 1205.33 151.75C1200.99 151.75 1197.91 152.833 1196.08 155C1194.41 157.167 1193.58 159.167 1193.58 161C1193.58 164.833 1195.74 167.917 1200.08 170.25C1204.41 172.417 1209.33 174.333 1214.83 176C1220.66 177.667 1226.49 179.5 1232.33 181.5C1238.16 183.333 1243.33 185.833 1247.83 189C1252.49 192.167 1256.24 196.167 1259.08 201C1261.91 205.833 1263.33 212 1263.33 219.5C1263.33 226.833 1261.83 233.417 1258.83 239.25C1255.83 245.083 1251.74 250.083 1246.58 254.25C1241.41 258.25 1235.41 261.333 1228.58 263.5C1221.74 265.667 1214.49 266.75 1206.83 266.75C1201.49 266.75 1195.74 266.083 1189.58 264.75C1183.41 263.417 1177.58 261 1172.08 257.5C1166.58 254 1161.83 249.333 1157.83 243.5C1153.83 237.5 1151.33 229.917 1150.33 220.75H1191.58C1192.08 223.917 1193.08 226.417 1194.58 228.25C1196.08 229.917 1197.66 231.167 1199.33 232C1201.16 232.667 1202.83 233.083 1204.33 233.25C1205.83 233.417 1206.83 233.5 1207.33 233.5C1210.83 233.5 1214.08 232.583 1217.08 230.75C1220.24 228.75 1221.83 226.083 1221.83 222.75C1221.83 220.083 1221.16 217.917 1219.83 216.25C1218.49 214.583 1216.33 213 1213.33 211.5C1210.49 210 1206.74 208.417 1202.08 206.75C1197.41 205.083 1191.74 203 1185.08 200.5C1180.58 199 1176.33 197.167 1172.33 195C1168.33 192.833 1164.83 190.25 1161.83 187.25C1158.83 184.25 1156.41 180.833 1154.58 177C1152.91 173.167 1152.08 168.917 1152.08 164.25C1152.08 157.417 1153.49 151.167 1156.33 145.5C1159.33 139.833 1163.24 135 1168.08 131C1173.08 127 1178.83 123.917 1185.33 121.75C1191.83 119.583 1198.66 118.5 1205.83 118.5C1210.33 118.5 1215.49 119.083 1221.33 120.25C1227.16 121.417 1232.66 123.583 1237.83 126.75C1243.16 129.917 1247.83 134.333 1251.83 140C1255.83 145.667 1258.24 153.083 1259.08 162.25H1218.33Z" fill="white"></path>
<path d="M1289.08 123.25H1327.83V138H1328.33C1329.17 136.5 1330.42 134.667 1332.08 132.5C1333.75 130.333 1336 128.25 1338.83 126.25C1341.83 124.083 1345.58 122.25 1350.08 120.75C1354.58 119.25 1360.08 118.5 1366.58 118.5C1369.58 118.5 1372.83 118.833 1376.33 119.5C1380 120.167 1383.58 121.417 1387.08 123.25C1390.58 125.083 1394 127.583 1397.33 130.75C1400.67 133.917 1403.75 138.083 1406.58 143.25C1410.92 136.417 1416.67 130.583 1423.83 125.75C1431 120.917 1439.92 118.5 1450.58 118.5C1453.08 118.5 1455.83 118.667 1458.83 119C1461.83 119.333 1464.92 120 1468.08 121C1471.42 122 1474.67 123.417 1477.83 125.25C1481.17 127.083 1484.25 129.5 1487.08 132.5C1490.25 136 1492.83 139.333 1494.83 142.5C1496.83 145.5 1498.33 149 1499.33 153C1500.5 157 1501.25 161.667 1501.58 167C1501.92 172.167 1502.08 178.583 1502.08 186.25V262H1460.58V188.25C1460.58 185.417 1460.42 182.25 1460.08 178.75C1459.92 175.083 1459.17 171.75 1457.83 168.75C1456.5 165.583 1454.42 162.917 1451.58 160.75C1448.75 158.583 1444.67 157.5 1439.33 157.5C1433.5 157.5 1429 158.667 1425.83 161C1422.83 163.167 1420.58 165.833 1419.08 169C1417.75 172.167 1416.92 175.333 1416.58 178.5C1416.42 181.667 1416.33 184.25 1416.33 186.25V262H1374.83V186.5C1374.83 184.667 1374.67 182.167 1374.33 179C1374.17 175.667 1373.42 172.417 1372.08 169.25C1370.92 166.083 1368.92 163.333 1366.08 161C1363.25 158.667 1359.25 157.5 1354.08 157.5C1348.25 157.5 1343.75 158.75 1340.58 161.25C1337.42 163.583 1335.08 166.417 1333.58 169.75C1332.08 173.083 1331.17 176.5 1330.83 180C1330.67 183.5 1330.58 186.25 1330.58 188.25V262H1289.08V123.25Z" fill="white"></path>
<path d="M1577.77 108.5H1536.27V77H1577.77V108.5ZM1577.77 262H1536.27V123.25H1577.77V262Z" fill="white"></path>
<path d="M1662.55 123.25H1682.55V154.75H1662.55V262H1621.05V154.75H1600.55V123.25H1621.05V77H1662.55V123.25Z" fill="white"></path>
<path d="M1705.45 77H1746.95V136H1747.45C1750.95 129.667 1755.87 125.167 1762.2 122.5C1768.7 119.833 1775.7 118.5 1783.2 118.5C1786.53 118.5 1789.95 118.833 1793.45 119.5C1796.95 120 1800.37 120.917 1803.7 122.25C1807.03 123.417 1810.2 125 1813.2 127C1816.2 128.833 1818.78 131.083 1820.95 133.75C1823.95 137.25 1826.28 140.667 1827.95 144C1829.62 147.333 1830.87 151 1831.7 155C1832.7 159 1833.28 163.417 1833.45 168.25C1833.78 172.917 1833.95 178.333 1833.95 184.5V262H1792.45V186.5C1792.45 184.833 1792.28 182.417 1791.95 179.25C1791.78 175.917 1791.03 172.667 1789.7 169.5C1788.37 166.333 1786.12 163.583 1782.95 161.25C1779.95 158.75 1775.7 157.5 1770.2 157.5C1764.37 157.5 1759.87 158.667 1756.7 161C1753.53 163.167 1751.2 165.75 1749.7 168.75C1748.37 171.75 1747.53 174.833 1747.2 178C1747.03 181 1746.95 183.333 1746.95 185V262H1705.45V77Z" fill="white"></path>
</svg>