<svg width="179" height="30" viewBox="0 0 179 30" fill="none" xmlns="http://www.w3.org/2000/svg">
<g clip-path="url(#clip0_155_150)">
<path d="M56.2469 23.1536C55.9395 23.1536 55.7871 23.0036 55.7871 22.7024V6.67803C55.7871 6.37681 55.9408 6.22681 56.2469 6.22681H61.4713C64.5322 6.22681 66.8469 6.95973 68.4152 8.42681C69.9834 9.89388 70.7688 11.9853 70.7688 14.7012C70.7688 17.3939 69.9883 19.4768 68.4273 20.9475C66.8664 22.4183 64.5481 23.1536 61.4713 23.1536H56.2469ZM59.7566 19.8244H61.4822C63.2237 19.8244 64.5505 19.3744 65.4639 18.4756C66.3774 17.5768 66.8335 16.3 66.8335 14.6451C66.8335 12.9975 66.3786 11.7378 65.47 10.8646C64.5615 9.99144 63.2322 9.55606 61.4834 9.55606H59.7566V19.8244Z" fill="white"/>
<path d="M79.1346 23.1609C78.2443 23.1609 77.409 23.0145 76.626 22.7206C75.8431 22.4267 75.159 22.0121 74.5724 21.4743C73.9858 20.9365 73.5236 20.2633 73.1858 19.4548C72.848 18.6462 72.6797 17.756 72.6797 16.7865C72.6797 14.8609 73.2651 13.317 74.4346 12.1548C75.6041 10.9926 77.1053 10.4109 78.9394 10.4109C80.7651 10.4109 82.2382 10.9841 83.3577 12.1316C84.4773 13.2792 85.037 14.8158 85.037 16.7414C85.037 16.9523 84.9992 17.1011 84.9224 17.1877C84.8455 17.2743 84.7077 17.317 84.5077 17.317H76.1309C76.1614 18.2194 76.476 18.9194 77.0748 19.4158C77.6736 19.9121 78.3943 20.1609 79.2382 20.1609C80.3199 20.1609 81.348 19.7853 82.3224 19.0328C82.5529 18.867 82.7553 18.8828 82.9321 19.0779L84.2785 20.7365C84.5004 20.9401 84.4626 21.1536 84.1638 21.3792C82.6516 22.567 80.976 23.1609 79.1346 23.1609ZM76.3504 15.0365H81.4138C81.2834 14.3901 80.9955 13.9158 80.5504 13.6145C80.1053 13.3133 79.5955 13.1633 79.0199 13.1633C78.437 13.1633 77.8907 13.3158 77.3797 13.6206C76.8699 13.9255 76.526 14.3975 76.3504 15.0365Z" fill="white"/>
<path d="M91.6801 23.1841C90.5448 23.1841 89.2643 23.0146 87.8375 22.6768C87.4996 22.5865 87.3923 22.3987 87.5155 22.1121L88.1484 20.217C88.2484 19.9609 88.4435 19.8707 88.735 19.9463C89.885 20.3072 90.8826 20.4877 91.7265 20.4877C92.6704 20.4877 93.1423 20.1828 93.1423 19.5743C93.1423 19.4463 93.0862 19.3243 92.9753 19.2072C92.8643 19.0914 92.6972 18.9743 92.4753 18.8572C92.2533 18.7402 92.0265 18.6316 91.796 18.5304C91.5655 18.4292 91.2777 18.3048 90.9326 18.1585C90.5875 18.0121 90.2923 17.8743 90.0472 17.7463C89.6631 17.5511 89.3301 17.3548 89.046 17.1597C88.7618 16.9646 88.4862 16.7292 88.2179 16.4548C87.9496 16.1804 87.7448 15.8658 87.6021 15.5121C87.4606 15.1585 87.3887 14.7707 87.3887 14.3499C87.3887 13.6731 87.5216 13.0768 87.7862 12.5609C88.0509 12.0463 88.407 11.6377 88.8557 11.3365C89.3045 11.0353 89.8009 10.8097 90.346 10.6597C90.8911 10.5097 91.474 10.4341 92.0948 10.4341C93.2228 10.4341 94.4033 10.6255 95.6387 11.0097C95.9301 11.0853 96.0301 11.2658 95.9375 11.5512L95.3618 13.4585C95.2777 13.7597 95.0814 13.8572 94.7753 13.7524C93.6631 13.3841 92.7618 13.1999 92.0716 13.1999C91.3192 13.1999 90.9435 13.4365 90.9435 13.9109C90.9435 14.0463 90.9875 14.1719 91.0753 14.2889C91.1631 14.406 91.3094 14.5207 91.5131 14.6329C91.7167 14.7463 91.9045 14.8414 92.0765 14.9207C92.2496 14.9999 92.5045 15.1072 92.8411 15.2426C93.1789 15.378 93.4435 15.4877 93.635 15.5694C94.0716 15.7572 94.4496 15.9475 94.7679 16.1389C95.0862 16.3304 95.407 16.5719 95.7289 16.8609C96.0509 17.1499 96.2984 17.495 96.4716 17.8938C96.6435 18.2926 96.7301 18.7365 96.7301 19.2255C96.7301 19.8121 96.6326 20.3389 96.4362 20.8048C96.2411 21.2719 95.9814 21.6511 95.6594 21.945C95.3375 22.2389 94.9533 22.4804 94.5094 22.6731C94.0643 22.8646 93.6094 22.9987 93.146 23.0731C92.6826 23.1463 92.1936 23.1841 91.6801 23.1841Z" fill="white"/>
<path d="M105.258 23.1841C103.961 23.1841 102.792 22.9158 101.748 22.3768C100.704 21.839 99.8858 21.0829 99.2919 20.1085C98.6967 19.1341 98.4004 18.0341 98.4004 16.8085C98.4004 15.5816 98.698 14.4816 99.2919 13.5073C99.8858 12.5329 100.705 11.7768 101.748 11.239C102.791 10.7012 103.961 10.4316 105.258 10.4316C106.232 10.4316 107.143 10.5987 107.991 10.9341C108.838 11.2694 109.565 11.7377 110.171 12.339C110.271 12.4438 110.316 12.5548 110.309 12.6719C110.302 12.789 110.239 12.8914 110.125 12.9816L108.33 14.6524C108.122 14.8255 107.911 14.8024 107.697 14.5853C107.06 13.8475 106.247 13.4792 105.258 13.4792C104.299 13.4792 103.505 13.7951 102.876 14.4268C102.247 15.0585 101.932 15.8524 101.932 16.8073C101.932 17.7548 102.247 18.5463 102.876 19.1829C103.505 19.8182 104.299 20.1365 105.258 20.1365C106.247 20.1365 107.056 19.7682 107.686 19.0304C107.9 18.8194 108.115 18.7975 108.33 18.9633L110.125 20.6451C110.363 20.856 110.389 21.0548 110.205 21.2426C109.599 21.8524 108.866 22.328 108.008 22.6707C107.149 23.0133 106.232 23.1841 105.258 23.1841Z" fill="white"/>
<path d="M112.792 23.1536C112.485 23.1536 112.331 22.9999 112.331 22.6926L112.32 10.8584C112.32 10.5511 112.474 10.3974 112.78 10.3974H114.506C114.767 10.3974 114.935 10.5279 115.012 10.7901L115.414 12.2999C115.852 11.6389 116.375 11.1535 116.985 10.8462C117.595 10.5389 118.23 10.3853 118.89 10.3853C119.265 10.3853 119.649 10.4474 120.04 10.5694C120.308 10.6535 120.404 10.8426 120.328 11.134L119.741 13.4182C119.671 13.7024 119.48 13.8109 119.165 13.7414C118.797 13.6487 118.436 13.6036 118.084 13.6036C116.641 13.6036 115.92 14.5231 115.92 16.3609V22.6938C115.92 23.0011 115.767 23.1548 115.461 23.1548H112.792V23.1536Z" fill="white"/>
<path d="M122.792 8.89384C122.4 8.5097 122.205 8.03287 122.205 7.46092C122.205 6.88897 122.403 6.4097 122.798 6.02189C123.193 5.63409 123.675 5.44019 124.242 5.44019C124.825 5.44019 125.314 5.63409 125.709 6.02189C126.104 6.4097 126.301 6.88897 126.301 7.46092C126.301 8.03287 126.106 8.51092 125.715 8.89384C125.323 9.27799 124.833 9.46945 124.242 9.46945C123.666 9.46945 123.183 9.27677 122.792 8.89384ZM122.929 23.1536C122.622 23.1536 122.468 22.9963 122.468 22.6829V10.8536C122.468 10.539 122.622 10.3829 122.929 10.3829H125.599C125.906 10.3829 126.059 10.5402 126.059 10.8536V22.6817C126.059 22.9963 125.905 23.1524 125.599 23.1524H122.929V23.1536Z" fill="white"/>
<path d="M136.063 23.1609C135.172 23.1609 134.344 22.9951 133.577 22.6646C132.81 22.3341 132.154 21.8634 131.61 21.2536L131.135 22.7926C131.05 23.0487 130.881 23.1768 130.628 23.1768H128.891C128.583 23.1768 128.43 23.0268 128.43 22.7256L128.514 5.90605C128.514 5.60483 128.667 5.45483 128.974 5.45483H131.643C131.95 5.45483 132.103 5.60483 132.103 5.90605L132.091 11.7865C133.249 10.8682 134.572 10.4097 136.06 10.4097C137.233 10.4097 138.3 10.6951 139.259 11.267C140.217 11.839 140.964 12.6122 141.497 13.5853C142.03 14.5597 142.297 15.6256 142.297 16.7841C142.297 17.9426 142.03 19.0085 141.497 19.9829C140.964 20.9573 140.217 21.7304 139.259 22.3012C138.303 22.8756 137.237 23.1609 136.063 23.1609ZM132.921 14.4329C132.261 15.0841 131.932 15.8682 131.932 16.7853C131.932 17.7036 132.261 18.4878 132.921 19.1378C133.581 19.789 134.378 20.1134 135.315 20.1134C136.25 20.1134 137.05 19.7878 137.714 19.1378C138.377 18.4878 138.709 17.7024 138.709 16.7853C138.709 15.867 138.377 15.0829 137.714 14.4329C137.05 13.7829 136.25 13.4573 135.315 13.4573C134.38 13.4573 133.581 13.7817 132.921 14.4329Z" fill="white"/>
<path d="M150.408 23.1841C149.518 23.1841 148.682 23.0377 147.899 22.7438C147.117 22.4499 146.432 22.0353 145.846 21.4975C145.259 20.9597 144.797 20.2865 144.459 19.478C144.121 18.6694 143.953 17.7792 143.953 16.8097C143.953 14.8841 144.538 13.3402 145.708 12.178C146.878 11.0158 148.379 10.4341 150.213 10.4341C152.038 10.4341 153.512 11.0073 154.631 12.1548C155.751 13.3024 156.31 14.8389 156.31 16.7646C156.31 16.9755 156.273 17.1243 156.196 17.2109C156.119 17.2975 155.981 17.3402 155.781 17.3402H147.404C147.435 18.2426 147.749 18.9426 148.348 19.4389C148.947 19.9353 149.668 20.1841 150.512 20.1841C151.593 20.1841 152.621 19.8085 153.596 19.056C153.826 18.8902 154.029 18.906 154.206 19.1011L155.552 20.7597C155.774 20.9633 155.736 21.1768 155.437 21.4024C153.925 22.5902 152.249 23.1841 150.408 23.1841ZM147.624 15.0597H152.687C152.557 14.4133 152.269 13.9389 151.824 13.6377C151.379 13.3365 150.869 13.1865 150.293 13.1865C149.71 13.1865 149.164 13.3389 148.653 13.6438C148.143 13.9475 147.799 14.4194 147.624 15.0597Z" fill="white"/>
<path d="M162.543 23.1609C161.231 23.1609 160.189 22.839 159.414 22.1963C158.64 21.5536 158.252 20.6341 158.252 19.4378V5.90605C158.252 5.60483 158.406 5.45483 158.712 5.45483H161.381C161.689 5.45483 161.841 5.60483 161.841 5.90605V19.1658C161.841 19.9256 162.224 20.3061 162.991 20.3061C163.236 20.3061 163.497 20.2719 163.774 20.2048C164.081 20.1219 164.276 20.2195 164.36 20.4987L164.843 22.35C164.935 22.6512 164.828 22.8426 164.521 22.9256C163.979 23.0817 163.319 23.1609 162.543 23.1609Z" fill="white"/>
<path d="M167.058 27.717C166.89 27.717 166.773 27.6658 166.707 27.5646C166.641 27.4633 166.647 27.3329 166.724 27.1755L170.187 20.3829L165.435 10.9829C165.358 10.8243 165.351 10.6951 165.412 10.5938C165.473 10.4926 165.592 10.4414 165.769 10.4414H168.612C168.85 10.4414 169.026 10.5548 169.141 10.7804L172.018 16.6146L174.664 10.7804C174.764 10.5548 174.945 10.4414 175.206 10.4414H178.083C178.251 10.4414 178.368 10.4902 178.434 10.5877C178.498 10.6853 178.494 10.8134 178.417 10.9719L170.351 27.3792C170.236 27.6048 170.052 27.7182 169.798 27.7182H167.058V27.717Z" fill="white"/>
<path d="M5.68386 29.9C5.19971 29.9 4.74362 29.711 4.39728 29.3683C4.07045 29.0391 3.88264 28.6025 3.86801 28.1403C3.85337 27.6708 4.03508 27.2171 4.37898 26.8622C4.74606 26.4842 5.25459 26.2671 5.77532 26.2671H17.4571C18.4583 26.2671 19.2729 27.0817 19.2729 28.083C19.2729 29.0842 18.4583 29.8988 17.4571 29.8988H5.68386V29.9ZM24.5522 29.8634C23.5546 29.8598 22.7424 29.0452 22.7424 28.0476C22.7424 27.0464 23.5571 26.2317 24.5583 26.2317L34.1485 26.2671C40.1863 26.2671 45.0973 21.3561 45.0973 15.3195V14.5866C45.0973 8.55 40.1863 3.63903 34.1498 3.63903H24.5754C24.0912 3.63903 23.6351 3.45001 23.2888 3.10732C22.962 2.77805 22.7742 2.34147 22.7595 1.87927C22.7449 1.40976 22.9266 0.954885 23.2705 0.601226C23.6376 0.223177 24.1461 0.00610352 24.6668 0.00610352H34.1498C42.19 0.00610352 48.7303 6.54757 48.7303 14.5866V15.3195C48.7303 23.3586 42.19 29.9 34.151 29.9L24.5522 29.8634Z" fill="#34F7B5"/>
<path d="M20.2838 23.2952C19.2825 23.2952 18.4679 22.4806 18.4679 21.4794C18.4679 20.4782 19.2825 19.6635 20.2838 19.6635H33.785C35.085 19.6635 36.296 19.1428 37.196 18.1977C38.0947 17.2538 38.5533 16.0172 38.4874 14.716C38.3643 12.2086 36.2423 10.244 33.6557 10.244H18.8703C18.3862 10.244 17.9301 10.055 17.5838 9.7123C17.2569 9.38304 17.0691 8.94645 17.0545 8.48425C17.0399 8.01474 17.2216 7.55986 17.5655 7.20621C17.9325 6.82816 18.4411 6.61108 18.9618 6.61108H33.5996C38.1655 6.61108 41.9899 10.2404 42.124 14.7025C42.1911 16.9757 41.3557 19.1269 39.7691 20.7599C38.1813 22.3952 36.0569 23.2952 33.785 23.2952H20.2838ZM1.88503 23.2952C1.40088 23.2952 0.944789 23.1062 0.598447 22.7635C0.271618 22.4343 0.0838134 21.9977 0.0691792 21.5355C0.0545451 21.066 0.236253 20.6123 0.580156 20.2574C0.947229 19.8794 1.45576 19.6623 1.97649 19.6623H13.9691C14.9703 19.6623 15.785 20.4769 15.785 21.4782C15.785 22.4794 14.9703 23.294 13.9691 23.294H1.88503V23.2952Z" fill="#34F7B5"/>
<path d="M13.1131 16.9305C12.5875 16.9305 12.0704 16.711 11.6948 16.3292C11.3448 15.9731 11.157 15.5171 11.1643 15.0451C11.1728 14.561 11.3655 14.1085 11.7069 13.7707C12.0557 13.4183 12.5204 13.2256 13.0167 13.2256H23.6838C24.7058 13.2256 25.5362 14.0573 25.5362 15.078C25.5362 16.0988 24.7045 16.9305 23.6838 16.9305H13.1131Z" fill="#34F7B5"/>
<path d="M30.0712 16.9305C29.0492 16.9305 28.2188 16.0988 28.2188 15.078C28.2188 14.0573 29.0505 13.2256 30.0712 13.2256H33.6407C34.5797 13.2256 35.4053 13.8817 35.5602 14.75C35.6663 15.35 35.4749 15.961 35.0468 16.3853C34.698 16.7378 34.2334 16.9305 33.737 16.9305H30.0712Z" fill="#34F7B5"/>
</g>
<defs>
<clipPath id="clip0_155_150">
<rect width="178.537" height="30" fill="white"/>
</clipPath>
</defs>
</svg>
