<svg width="829" height="1043" viewBox="0 0 829 1043" fill="none" xmlns="http://www.w3.org/2000/svg">
<g filter="url(#filter0_d_32_1384)">
<path d="M75 20.8333C75 9.3274 84.3274 0 95.8333 0H804.167C815.673 0 825 9.3274 825 20.8333V145.833C825 157.339 815.673 166.667 804.167 166.667H95.8333C84.3274 166.667 75 157.339 75 145.833V20.8333Z" fill="black"/>
<path fill-rule="evenodd" clip-rule="evenodd" d="M804.167 4.16667H95.8333C86.6286 4.16667 79.1667 11.6286 79.1667 20.8333V145.833C79.1667 155.038 86.6286 162.5 95.8333 162.5H804.167C813.371 162.5 820.833 155.038 820.833 145.833V20.8333C820.833 11.6286 813.371 4.16667 804.167 4.16667ZM95.8333 0C84.3274 0 75 9.3274 75 20.8333V145.833C75 157.339 84.3274 166.667 95.8333 166.667H804.167C815.673 166.667 825 157.339 825 145.833V20.8333C825 9.3274 815.673 0 804.167 0H95.8333Z" fill="#292524"/>
<path d="M108.333 54.1668C108.333 42.6609 117.661 33.3335 129.167 33.3335H187.5C199.006 33.3335 208.333 42.6609 208.333 54.1668V112.5C208.333 124.006 199.006 133.334 187.5 133.334H129.167C117.661 133.334 108.333 124.006 108.333 112.5V54.1668Z" fill="#1C1917"/>
<path d="M161.458 77.2915H183.333L155.208 117.916V89.7915H133.333L161.458 49.1665V77.2915Z" fill="#A3E635"/>
<path d="M734.979 80.1335H739.879V73.3335H744.079V80.1335H750.046V84.1335H744.079V91.6668C744.079 92.3335 744.379 92.6668 744.979 92.6668H749.446V96.6668H742.446C741.69 96.6668 741.068 96.4224 740.579 95.9335C740.112 95.4446 739.879 94.8224 739.879 94.0668V84.1335H734.979V80.1335Z" fill="white"/>
<path d="M720.302 84.8003C720.302 85.3337 720.58 85.7225 721.136 85.967C721.691 86.1892 722.702 86.3781 724.169 86.5337C725.858 86.7114 727.236 87.2225 728.302 88.067C729.369 88.8892 729.902 90.0448 729.902 91.5337V91.7337C729.902 93.3781 729.302 94.6892 728.102 95.667C726.902 96.6448 725.213 97.1337 723.036 97.1337C721.747 97.1337 720.647 96.967 719.736 96.6337C718.824 96.3003 718.069 95.8892 717.469 95.4003C716.869 94.8892 716.402 94.3337 716.069 93.7337C715.758 93.1114 715.547 92.5114 715.436 91.9337L719.302 90.667C719.48 91.3781 719.847 92.0003 720.402 92.5337C720.98 93.067 721.858 93.3337 723.036 93.3337C724.08 93.3337 724.791 93.1781 725.169 92.867C725.569 92.5337 725.769 92.1781 725.769 91.8003C725.769 91.5781 725.713 91.3781 725.602 91.2003C725.513 91.0003 725.336 90.8225 725.069 90.667C724.802 90.4892 724.436 90.3448 723.969 90.2337C723.524 90.1225 722.958 90.0337 722.269 89.967C720.402 89.8114 718.913 89.3337 717.802 88.5337C716.713 87.7114 716.169 86.5114 716.169 84.9337V84.7337C716.169 83.9114 716.347 83.1892 716.702 82.567C717.058 81.9448 717.524 81.4225 718.102 81.0003C718.68 80.5559 719.347 80.2225 720.102 80.0003C720.858 79.7781 721.636 79.667 722.436 79.667C723.48 79.667 724.38 79.8003 725.136 80.067C725.913 80.3114 726.569 80.6448 727.102 81.067C727.636 81.467 728.069 81.9225 728.402 82.4337C728.736 82.9225 728.991 83.4003 729.169 83.867L725.369 85.4003C725.169 84.8003 724.824 84.3337 724.336 84.0003C723.847 83.6448 723.213 83.467 722.436 83.467C721.724 83.467 721.191 83.6003 720.836 83.867C720.48 84.1114 720.302 84.4225 720.302 84.8003Z" fill="white"/>
<path d="M694.925 92.6669H700.525V84.1336H695.325V80.1336H704.725V92.6669H709.525V96.6669H694.925V92.6669ZM705.759 75.2336C705.759 75.678 705.67 76.1002 705.492 76.5002C705.336 76.878 705.114 77.2113 704.825 77.5002C704.536 77.7669 704.192 77.9891 703.792 78.1669C703.414 78.3224 703.014 78.4002 702.592 78.4002C702.148 78.4002 701.736 78.3224 701.359 78.1669C700.981 77.9891 700.648 77.7669 700.359 77.5002C700.07 77.2113 699.836 76.878 699.659 76.5002C699.503 76.1002 699.425 75.678 699.425 75.2336C699.425 74.7891 699.503 74.378 699.659 74.0002C699.836 73.6002 700.07 73.2669 700.359 73.0002C700.648 72.7113 700.981 72.4891 701.359 72.3336C701.736 72.1558 702.148 72.0669 702.592 72.0669C703.014 72.0669 703.414 72.1558 703.792 72.3336C704.192 72.4891 704.536 72.7113 704.825 73.0002C705.114 73.2669 705.336 73.6002 705.492 74.0002C705.67 74.378 705.759 74.7891 705.759 75.2336Z" fill="white"/>
<path d="M674.348 73.3335H678.748V92.4668H689.348V96.6668H674.348V73.3335Z" fill="white"/>
<path d="M638.662 84.8003C638.662 85.3337 638.939 85.7225 639.495 85.967C640.05 86.1892 641.062 86.3781 642.528 86.5337C644.217 86.7114 645.595 87.2225 646.662 88.067C647.728 88.8892 648.262 90.0448 648.262 91.5337V91.7337C648.262 93.3781 647.662 94.6892 646.462 95.667C645.262 96.6448 643.573 97.1337 641.395 97.1337C640.106 97.1337 639.006 96.967 638.095 96.6337C637.184 96.3003 636.428 95.8892 635.828 95.4003C635.228 94.8892 634.762 94.3337 634.428 93.7337C634.117 93.1114 633.906 92.5114 633.795 91.9337L637.662 90.667C637.839 91.3781 638.206 92.0003 638.762 92.5337C639.339 93.067 640.217 93.3337 641.395 93.3337C642.439 93.3337 643.15 93.1781 643.528 92.867C643.928 92.5337 644.128 92.1781 644.128 91.8003C644.128 91.5781 644.073 91.3781 643.962 91.2003C643.873 91.0003 643.695 90.8225 643.428 90.667C643.162 90.4892 642.795 90.3448 642.328 90.2337C641.884 90.1225 641.317 90.0337 640.628 89.967C638.762 89.8114 637.273 89.3337 636.162 88.5337C635.073 87.7114 634.528 86.5114 634.528 84.9337V84.7337C634.528 83.9114 634.706 83.1892 635.062 82.567C635.417 81.9448 635.884 81.4225 636.462 81.0003C637.039 80.5559 637.706 80.2225 638.462 80.0003C639.217 79.7781 639.995 79.667 640.795 79.667C641.839 79.667 642.739 79.8003 643.495 80.067C644.273 80.3114 644.928 80.6448 645.462 81.067C645.995 81.467 646.428 81.9225 646.762 82.4337C647.095 82.9225 647.35 83.4003 647.528 83.867L643.728 85.4003C643.528 84.8003 643.184 84.3337 642.695 84.0003C642.206 83.6448 641.573 83.467 640.795 83.467C640.084 83.467 639.55 83.6003 639.195 83.867C638.839 84.1114 638.662 84.4225 638.662 84.8003Z" fill="white"/>
<path d="M617.184 96.667H612.984V80.1337H617.184V82.6003H617.784C618.162 81.667 618.773 80.9448 619.618 80.4337C620.462 79.9225 621.451 79.667 622.584 79.667C623.384 79.667 624.129 79.8003 624.818 80.067C625.529 80.3114 626.151 80.7003 626.684 81.2337C627.218 81.767 627.629 82.4448 627.918 83.267C628.229 84.0892 628.384 85.067 628.384 86.2003V96.667H624.184V87.267C624.184 86.0892 623.895 85.167 623.318 84.5003C622.762 83.8114 621.951 83.467 620.884 83.467C619.64 83.467 618.707 83.8892 618.084 84.7337C617.484 85.5559 617.184 86.667 617.184 88.067V96.667Z" fill="white"/>
<path d="M608.774 88.6003C608.774 89.9781 608.54 91.2003 608.074 92.267C607.607 93.3114 606.974 94.2003 606.174 94.9337C605.374 95.6448 604.451 96.1892 603.407 96.567C602.385 96.9448 601.307 97.1337 600.174 97.1337C599.04 97.1337 597.952 96.9448 596.907 96.567C595.885 96.1892 594.974 95.6448 594.174 94.9337C593.374 94.2003 592.74 93.3114 592.274 92.267C591.807 91.2003 591.574 89.9781 591.574 88.6003V88.2003C591.574 86.8448 591.807 85.6448 592.274 84.6003C592.74 83.5337 593.374 82.6337 594.174 81.9003C594.974 81.167 595.885 80.6114 596.907 80.2337C597.952 79.8559 599.04 79.667 600.174 79.667C601.307 79.667 602.385 79.8559 603.407 80.2337C604.451 80.6114 605.374 81.167 606.174 81.9003C606.974 82.6337 607.607 83.5337 608.074 84.6003C608.54 85.6448 608.774 86.8448 608.774 88.2003V88.6003ZM600.174 93.1337C600.774 93.1337 601.34 93.0337 601.874 92.8337C602.407 92.6337 602.874 92.3448 603.274 91.967C603.674 91.5892 603.985 91.1337 604.207 90.6003C604.451 90.0448 604.574 89.4225 604.574 88.7337V88.067C604.574 87.3781 604.451 86.767 604.207 86.2337C603.985 85.6781 603.674 85.2114 603.274 84.8337C602.874 84.4559 602.407 84.167 601.874 83.967C601.34 83.767 600.774 83.667 600.174 83.667C599.574 83.667 599.007 83.767 598.474 83.967C597.94 84.167 597.474 84.4559 597.074 84.8337C596.674 85.2114 596.351 85.6781 596.107 86.2337C595.885 86.767 595.774 87.3781 595.774 88.067V88.7337C595.774 89.4225 595.885 90.0448 596.107 90.6003C596.351 91.1337 596.674 91.5892 597.074 91.967C597.474 92.3448 597.94 92.6337 598.474 92.8337C599.007 93.0337 599.574 93.1337 600.174 93.1337Z" fill="white"/>
<path d="M572.464 92.6669H578.064V84.1336H572.864V80.1336H582.264V92.6669H587.064V96.6669H572.464V92.6669ZM583.298 75.2336C583.298 75.678 583.209 76.1002 583.031 76.5002C582.875 76.878 582.653 77.2113 582.364 77.5002C582.075 77.7669 581.731 77.9891 581.331 78.1669C580.953 78.3224 580.553 78.4002 580.131 78.4002C579.687 78.4002 579.275 78.3224 578.898 78.1669C578.52 77.9891 578.187 77.7669 577.898 77.5002C577.609 77.2113 577.375 76.878 577.198 76.5002C577.042 76.1002 576.964 75.678 576.964 75.2336C576.964 74.7891 577.042 74.378 577.198 74.0002C577.375 73.6002 577.609 73.2669 577.898 73.0002C578.187 72.7113 578.52 72.4891 578.898 72.3336C579.275 72.1558 579.687 72.0669 580.131 72.0669C580.553 72.0669 580.953 72.1558 581.331 72.3336C581.731 72.4891 582.075 72.7113 582.364 73.0002C582.653 73.2669 582.875 73.6002 583.031 74.0002C583.209 74.378 583.298 74.7891 583.298 75.2336Z" fill="white"/>
<path d="M551.288 80.1335H556.188V73.3335H560.388V80.1335H566.354V84.1335H560.388V91.6668C560.388 92.3335 560.688 92.6668 561.288 92.6668H565.754V96.6668H558.754C557.999 96.6668 557.376 96.4224 556.888 95.9335C556.421 95.4446 556.188 94.8224 556.188 94.0668V84.1335H551.288V80.1335Z" fill="white"/>
<path d="M542.043 94.267C541.599 95.3114 540.977 96.0559 540.177 96.5003C539.377 96.9225 538.443 97.1337 537.377 97.1337C536.377 97.1337 535.432 96.9448 534.543 96.567C533.677 96.1892 532.91 95.6337 532.243 94.9003C531.577 94.167 531.043 93.2781 530.643 92.2337C530.266 91.1892 530.077 90.0003 530.077 88.667V88.1337C530.077 86.8225 530.266 85.6448 530.643 84.6003C531.021 83.5559 531.532 82.667 532.177 81.9337C532.821 81.2003 533.566 80.6448 534.41 80.267C535.277 79.867 536.199 79.667 537.177 79.667C538.354 79.667 539.299 79.867 540.01 80.267C540.743 80.667 541.321 81.2892 541.743 82.1337H542.343V80.1337H546.543V91.667C546.543 92.3337 546.843 92.667 547.443 92.667H548.077V96.667H545.21C544.454 96.667 543.832 96.4448 543.343 96.0003C542.877 95.5559 542.643 94.9781 542.643 94.267H542.043ZM538.31 93.1337C539.532 93.1337 540.51 92.7337 541.243 91.9337C541.977 91.1114 542.343 90.0003 542.343 88.6003V88.2003C542.343 86.8003 541.977 85.7003 541.243 84.9003C540.51 84.0781 539.532 83.667 538.31 83.667C537.088 83.667 536.11 84.0781 535.377 84.9003C534.643 85.7003 534.277 86.8003 534.277 88.2003V88.6003C534.277 90.0003 534.643 91.1114 535.377 91.9337C536.11 92.7337 537.088 93.1337 538.31 93.1337Z" fill="white"/>
<path d="M510.133 80.1337H517.133V82.5337H517.733C518.044 81.6225 518.566 80.9225 519.3 80.4337C520.055 79.9225 520.955 79.667 522 79.667C523.644 79.667 524.966 80.1892 525.966 81.2337C526.966 82.2559 527.466 83.8225 527.466 85.9337V86.667L523.133 87.067V86.6003C523.133 85.6892 522.9 84.967 522.433 84.4337C521.966 83.8781 521.266 83.6003 520.333 83.6003C519.4 83.6003 518.666 83.9225 518.133 84.567C517.6 85.2114 517.333 86.1337 517.333 87.3337V92.667H521.133V96.667H509.733V92.667H513.133V84.1337H510.133V80.1337Z" fill="white"/>
<path d="M502.323 94.267H501.723C501.545 94.6448 501.323 95.0114 501.056 95.367C500.812 95.7003 500.478 96.0003 500.056 96.267C499.656 96.5337 499.167 96.7448 498.589 96.9003C498.034 97.0559 497.356 97.1337 496.556 97.1337C495.534 97.1337 494.578 96.9559 493.689 96.6003C492.823 96.2225 492.056 95.6781 491.389 94.967C490.745 94.2337 490.234 93.3448 489.856 92.3003C489.501 91.2559 489.323 90.0559 489.323 88.7003V88.1003C489.323 86.767 489.512 85.5781 489.889 84.5337C490.289 83.4892 490.823 82.6114 491.489 81.9003C492.178 81.167 492.967 80.6114 493.856 80.2337C494.767 79.8559 495.723 79.667 496.723 79.667C498.056 79.667 499.112 79.9225 499.889 80.4337C500.667 80.9225 501.278 81.6225 501.723 82.5337H502.323V80.1337H506.523V100.734C506.523 101.489 506.278 102.111 505.789 102.6C505.323 103.089 504.712 103.334 503.956 103.334H492.823V99.3337H501.423C502.023 99.3337 502.323 99.0003 502.323 98.3337V94.267ZM497.923 93.1337C499.234 93.1337 500.289 92.7225 501.089 91.9003C501.912 91.0559 502.323 89.9559 502.323 88.6003V88.2003C502.323 86.8448 501.912 85.7559 501.089 84.9337C500.289 84.0892 499.234 83.667 497.923 83.667C496.612 83.667 495.545 84.0781 494.723 84.9003C493.923 85.7003 493.523 86.8003 493.523 88.2003V88.6003C493.523 90.0003 493.923 91.1114 494.723 91.9337C495.545 92.7337 496.612 93.1337 497.923 93.1337Z" fill="white"/>
<path d="M473.813 89.767C473.836 90.2559 473.947 90.7114 474.147 91.1337C474.369 91.5337 474.658 91.8892 475.013 92.2003C475.391 92.4892 475.813 92.7225 476.28 92.9003C476.769 93.0559 477.28 93.1337 477.813 93.1337C478.858 93.1337 479.658 92.9559 480.213 92.6003C480.769 92.2225 481.169 91.7781 481.413 91.267L485.013 93.267C484.813 93.6892 484.536 94.1337 484.18 94.6003C483.824 95.0448 483.358 95.4559 482.78 95.8337C482.224 96.2114 481.536 96.5225 480.713 96.767C479.913 97.0114 478.969 97.1337 477.88 97.1337C476.636 97.1337 475.502 96.9337 474.48 96.5337C473.458 96.1337 472.569 95.5559 471.813 94.8003C471.08 94.0448 470.502 93.1225 470.08 92.0337C469.68 90.9448 469.48 89.7114 469.48 88.3337V88.1337C469.48 86.867 469.691 85.7114 470.113 84.667C470.558 83.6225 471.158 82.7337 471.913 82.0003C472.669 81.267 473.547 80.7003 474.547 80.3003C475.569 79.8781 476.658 79.667 477.813 79.667C479.236 79.667 480.458 79.9225 481.48 80.4337C482.502 80.9225 483.347 81.5559 484.013 82.3337C484.68 83.0892 485.169 83.9337 485.48 84.867C485.791 85.7781 485.947 86.667 485.947 87.5337V89.767H473.813ZM477.78 83.467C476.713 83.467 475.847 83.7448 475.18 84.3003C474.513 84.8337 474.08 85.4559 473.88 86.167H481.68C481.547 85.3892 481.124 84.7448 480.413 84.2337C479.724 83.7225 478.847 83.467 477.78 83.467Z" fill="white"/>
<path d="M449.237 80.1335H454.137V73.3335H458.337V80.1335H464.303V84.1335H458.337V91.6668C458.337 92.3335 458.637 92.6668 459.237 92.6668H463.703V96.6668H456.703C455.948 96.6668 455.326 96.4224 454.837 95.9335C454.37 95.4446 454.137 94.8224 454.137 94.0668V84.1335H449.237V80.1335Z" fill="white"/>
<path d="M433.493 96.667H429.293V80.1337H433.493V82.6003H434.093C434.471 81.667 435.082 80.9448 435.926 80.4337C436.771 79.9225 437.76 79.667 438.893 79.667C439.693 79.667 440.437 79.8003 441.126 80.067C441.837 80.3114 442.46 80.7003 442.993 81.2337C443.526 81.767 443.937 82.4448 444.226 83.267C444.537 84.0892 444.693 85.067 444.693 86.2003V96.667H440.493V87.267C440.493 86.0892 440.204 85.167 439.626 84.5003C439.071 83.8114 438.26 83.467 437.193 83.467C435.949 83.467 435.015 83.8892 434.393 84.7337C433.793 85.5559 433.493 86.667 433.493 88.067V96.667Z" fill="white"/>
<path d="M408.683 73.3335H424.283V77.5335H418.683V92.4668H424.283V96.6668H408.683V92.4668H414.283V77.5335H408.683V73.3335Z" fill="white"/>
<path d="M371.763 89.767C371.785 90.2559 371.896 90.7114 372.096 91.1337C372.318 91.5337 372.607 91.8892 372.963 92.2003C373.34 92.4892 373.763 92.7225 374.229 92.9003C374.718 93.0559 375.229 93.1337 375.763 93.1337C376.807 93.1337 377.607 92.9559 378.163 92.6003C378.718 92.2225 379.118 91.7781 379.363 91.267L382.963 93.267C382.763 93.6892 382.485 94.1337 382.129 94.6003C381.774 95.0448 381.307 95.4559 380.729 95.8337C380.174 96.2114 379.485 96.5225 378.663 96.767C377.863 97.0114 376.918 97.1337 375.829 97.1337C374.585 97.1337 373.451 96.9337 372.429 96.5337C371.407 96.1337 370.518 95.5559 369.763 94.8003C369.029 94.0448 368.451 93.1225 368.029 92.0337C367.629 90.9448 367.429 89.7114 367.429 88.3337V88.1337C367.429 86.867 367.64 85.7114 368.063 84.667C368.507 83.6225 369.107 82.7337 369.863 82.0003C370.618 81.267 371.496 80.7003 372.496 80.3003C373.518 79.8781 374.607 79.667 375.763 79.667C377.185 79.667 378.407 79.9225 379.429 80.4337C380.451 80.9225 381.296 81.5559 381.963 82.3337C382.629 83.0892 383.118 83.9337 383.429 84.867C383.74 85.7781 383.896 86.667 383.896 87.5337V89.767H371.763ZM375.729 83.467C374.663 83.467 373.796 83.7448 373.129 84.3003C372.463 84.8337 372.029 85.4559 371.829 86.167H379.629C379.496 85.3892 379.074 84.7448 378.363 84.2337C377.674 83.7225 376.796 83.467 375.729 83.467Z" fill="white"/>
<path d="M347.186 80.1335H352.086V73.3335H356.286V80.1335H362.253V84.1335H356.286V91.6668C356.286 92.3335 356.586 92.6668 357.186 92.6668H361.653V96.6668H354.653C353.897 96.6668 353.275 96.4224 352.786 95.9335C352.319 95.4446 352.086 94.8224 352.086 94.0668V84.1335H347.186V80.1335Z" fill="white"/>
<path d="M337.942 94.267C337.497 95.3114 336.875 96.0559 336.075 96.5003C335.275 96.9225 334.342 97.1337 333.275 97.1337C332.275 97.1337 331.331 96.9448 330.442 96.567C329.575 96.1892 328.808 95.6337 328.142 94.9003C327.475 94.167 326.942 93.2781 326.542 92.2337C326.164 91.1892 325.975 90.0003 325.975 88.667V88.1337C325.975 86.8225 326.164 85.6448 326.542 84.6003C326.92 83.5559 327.431 82.667 328.075 81.9337C328.72 81.2003 329.464 80.6448 330.308 80.267C331.175 79.867 332.097 79.667 333.075 79.667C334.253 79.667 335.197 79.867 335.908 80.267C336.642 80.667 337.22 81.2892 337.642 82.1337H338.242V80.1337H342.442V91.667C342.442 92.3337 342.742 92.667 343.342 92.667H343.975V96.667H341.108C340.353 96.667 339.731 96.4448 339.242 96.0003C338.775 95.5559 338.542 94.9781 338.542 94.267H337.942ZM334.208 93.1337C335.431 93.1337 336.408 92.7337 337.142 91.9337C337.875 91.1114 338.242 90.0003 338.242 88.6003V88.2003C338.242 86.8003 337.875 85.7003 337.142 84.9003C336.408 84.0781 335.431 83.667 334.208 83.667C332.986 83.667 332.008 84.0781 331.275 84.9003C330.542 85.7003 330.175 86.8003 330.175 88.2003V88.6003C330.175 90.0003 330.542 91.1114 331.275 91.9337C332.008 92.7337 332.986 93.1337 334.208 93.1337Z" fill="white"/>
<path d="M318.698 94.2668H318.098C317.92 94.6446 317.698 95.0113 317.432 95.3668C317.187 95.7002 316.854 96.0002 316.432 96.2668C316.032 96.5335 315.543 96.7446 314.965 96.9002C314.409 97.0557 313.732 97.1335 312.932 97.1335C311.909 97.1335 310.954 96.9557 310.065 96.6002C309.198 96.2224 308.432 95.6779 307.765 94.9668C307.12 94.2335 306.609 93.3446 306.232 92.3002C305.876 91.2557 305.698 90.0557 305.698 88.7002V88.1002C305.698 86.7668 305.887 85.5779 306.265 84.5335C306.665 83.4891 307.198 82.6113 307.865 81.9002C308.554 81.1668 309.343 80.6113 310.232 80.2335C311.143 79.8557 312.098 79.6668 313.098 79.6668C314.432 79.6668 315.487 79.9224 316.265 80.4335C317.043 80.9224 317.654 81.6224 318.098 82.5335H318.698V73.3335H322.898V96.6668H318.698V94.2668ZM314.298 93.1335C315.609 93.1335 316.665 92.7224 317.465 91.9002C318.287 91.0557 318.698 89.9557 318.698 88.6002V88.2002C318.698 86.8446 318.287 85.7557 317.465 84.9335C316.665 84.0891 315.609 83.6668 314.298 83.6668C312.987 83.6668 311.92 84.0779 311.098 84.9002C310.298 85.7002 309.898 86.8002 309.898 88.2002V88.6002C309.898 90.0002 310.298 91.1113 311.098 91.9335C311.92 92.7335 312.987 93.1335 314.298 93.1335Z" fill="white"/>
<path d="M289.755 103.334H285.555V80.1337H289.755V82.5337H290.355C290.8 81.6225 291.444 80.9225 292.289 80.4337C293.133 79.9225 294.211 79.667 295.522 79.667C296.5 79.667 297.422 79.8559 298.289 80.2337C299.177 80.6114 299.944 81.167 300.589 81.9003C301.255 82.6114 301.777 83.4892 302.155 84.5337C302.555 85.5781 302.755 86.767 302.755 88.1003V88.7003C302.755 90.0559 302.566 91.2559 302.189 92.3003C301.811 93.3448 301.3 94.2337 300.655 94.967C300.011 95.6781 299.244 96.2225 298.355 96.6003C297.489 96.9559 296.544 97.1337 295.522 97.1337C294.766 97.1337 294.111 97.0559 293.555 96.9003C293 96.7448 292.511 96.5337 292.089 96.267C291.689 96.0003 291.344 95.7003 291.055 95.367C290.789 95.0114 290.555 94.6448 290.355 94.267H289.755V103.334ZM294.155 93.1337C295.466 93.1337 296.522 92.7337 297.322 91.9337C298.144 91.1114 298.555 90.0003 298.555 88.6003V88.2003C298.555 86.8003 298.144 85.7003 297.322 84.9003C296.522 84.0781 295.466 83.667 294.155 83.667C292.844 83.667 291.777 84.0892 290.955 84.9337C290.155 85.7559 289.755 86.8448 289.755 88.2003V88.6003C289.755 89.9559 290.155 91.0559 290.955 91.9003C291.777 92.7225 292.844 93.1337 294.155 93.1337Z" fill="white"/>
<path d="M282.011 73.3335V88.6002C282.011 91.2668 281.3 93.3557 279.878 94.8668C278.478 96.3779 276.389 97.1335 273.611 97.1335C270.834 97.1335 268.734 96.3779 267.311 94.8668C265.911 93.3557 265.211 91.2668 265.211 88.6002V73.3335H269.611V88.6002C269.611 89.9779 269.934 91.0557 270.578 91.8335C271.223 92.6113 272.234 93.0002 273.611 93.0002C274.989 93.0002 276 92.6113 276.645 91.8335C277.289 91.0557 277.611 89.9779 277.611 88.6002V73.3335H282.011Z" fill="white"/>
</g>
<path d="M0 237.833C0 226.327 9.3274 217 20.8333 217H729.167C740.673 217 750 226.327 750 237.833V362.833C750 374.339 740.673 383.667 729.167 383.667H20.8333C9.32741 383.667 0 374.339 0 362.833V237.833Z" fill="black"/>
<path fill-rule="evenodd" clip-rule="evenodd" d="M729.167 221.167H20.8333C11.6286 221.167 4.16667 228.629 4.16667 237.833V362.833C4.16667 372.038 11.6286 379.5 20.8333 379.5H729.167C738.371 379.5 745.833 372.038 745.833 362.833V237.833C745.833 228.629 738.371 221.167 729.167 221.167ZM20.8333 217C9.3274 217 0 226.327 0 237.833V362.833C0 374.339 9.32741 383.667 20.8333 383.667H729.167C740.673 383.667 750 374.339 750 362.833V237.833C750 226.327 740.673 217 729.167 217H20.8333Z" fill="#292524"/>
<path d="M33.333 271.166C33.333 259.66 42.6604 250.333 54.1663 250.333H112.5C124.006 250.333 133.333 259.66 133.333 271.166V329.5C133.333 341.006 124.006 350.333 112.5 350.333H54.1663C42.6604 350.333 33.333 341.006 33.333 329.5V271.166Z" fill="#1C1917"/>
<path d="M86.458 294.292H108.333L80.208 334.917V306.792H58.333L86.458 266.167V294.292Z" fill="#A3E635"/>
<path d="M597.485 296.3H602.385V289.5H606.585V296.3H612.552V300.3H606.585V307.833C606.585 308.5 606.885 308.833 607.485 308.833H611.952V312.833H604.952C604.196 312.833 603.574 312.589 603.085 312.1C602.618 311.611 602.385 310.989 602.385 310.233V300.3H597.485V296.3Z" fill="white"/>
<path d="M582.808 300.967C582.808 301.5 583.086 301.889 583.641 302.133C584.197 302.356 585.208 302.545 586.675 302.7C588.364 302.878 589.741 303.389 590.808 304.233C591.875 305.056 592.408 306.211 592.408 307.7V307.9C592.408 309.545 591.808 310.856 590.608 311.833C589.408 312.811 587.719 313.3 585.541 313.3C584.253 313.3 583.153 313.133 582.241 312.8C581.33 312.467 580.575 312.056 579.975 311.567C579.375 311.056 578.908 310.5 578.575 309.9C578.264 309.278 578.053 308.678 577.941 308.1L581.808 306.833C581.986 307.545 582.353 308.167 582.908 308.7C583.486 309.233 584.364 309.5 585.541 309.5C586.586 309.5 587.297 309.345 587.675 309.033C588.075 308.7 588.275 308.345 588.275 307.967C588.275 307.745 588.219 307.545 588.108 307.367C588.019 307.167 587.841 306.989 587.575 306.833C587.308 306.656 586.941 306.511 586.475 306.4C586.03 306.289 585.464 306.2 584.775 306.133C582.908 305.978 581.419 305.5 580.308 304.7C579.219 303.878 578.675 302.678 578.675 301.1V300.9C578.675 300.078 578.853 299.356 579.208 298.733C579.564 298.111 580.03 297.589 580.608 297.167C581.186 296.722 581.853 296.389 582.608 296.167C583.364 295.945 584.141 295.833 584.941 295.833C585.986 295.833 586.886 295.967 587.641 296.233C588.419 296.478 589.075 296.811 589.608 297.233C590.141 297.633 590.575 298.089 590.908 298.6C591.241 299.089 591.497 299.567 591.675 300.033L587.875 301.567C587.675 300.967 587.33 300.5 586.841 300.167C586.353 299.811 585.719 299.633 584.941 299.633C584.23 299.633 583.697 299.767 583.341 300.033C582.986 300.278 582.808 300.589 582.808 300.967Z" fill="white"/>
<path d="M560.832 305.933C560.854 306.422 560.965 306.878 561.165 307.3C561.387 307.7 561.676 308.056 562.032 308.367C562.41 308.656 562.832 308.889 563.299 309.067C563.787 309.222 564.299 309.3 564.832 309.3C565.876 309.3 566.676 309.122 567.232 308.767C567.787 308.389 568.187 307.945 568.432 307.433L572.032 309.433C571.832 309.856 571.554 310.3 571.199 310.767C570.843 311.211 570.376 311.622 569.799 312C569.243 312.378 568.554 312.689 567.732 312.933C566.932 313.178 565.987 313.3 564.899 313.3C563.654 313.3 562.521 313.1 561.499 312.7C560.476 312.3 559.587 311.722 558.832 310.967C558.099 310.211 557.521 309.289 557.099 308.2C556.699 307.111 556.499 305.878 556.499 304.5V304.3C556.499 303.033 556.71 301.878 557.132 300.833C557.576 299.789 558.176 298.9 558.932 298.167C559.687 297.433 560.565 296.867 561.565 296.467C562.587 296.045 563.676 295.833 564.832 295.833C566.254 295.833 567.476 296.089 568.499 296.6C569.521 297.089 570.365 297.722 571.032 298.5C571.699 299.256 572.187 300.1 572.499 301.033C572.81 301.945 572.965 302.833 572.965 303.7V305.933H560.832ZM564.799 299.633C563.732 299.633 562.865 299.911 562.199 300.467C561.532 301 561.099 301.622 560.899 302.333H568.699C568.565 301.556 568.143 300.911 567.432 300.4C566.743 299.889 565.865 299.633 564.799 299.633Z" fill="white"/>
<path d="M535.921 289.5H552.721V293.7H546.521V312.833H542.121V293.7H535.921V289.5Z" fill="white"/>
<path d="M494.834 308.633H497.034V293.7H494.834V289.5H505.068C506.179 289.5 507.157 289.656 508.001 289.967C508.868 290.278 509.59 290.7 510.168 291.233C510.768 291.767 511.212 292.411 511.501 293.167C511.812 293.9 511.968 294.7 511.968 295.567V295.967C511.968 297.3 511.59 298.367 510.834 299.167C510.101 299.967 509.168 300.522 508.034 300.833V301.433C509.168 301.744 510.101 302.311 510.834 303.133C511.59 303.933 511.968 305 511.968 306.333V306.733C511.968 307.6 511.812 308.411 511.501 309.167C511.212 309.9 510.768 310.544 510.168 311.1C509.59 311.633 508.868 312.056 508.001 312.367C507.157 312.678 506.179 312.833 505.068 312.833H494.834V308.633ZM501.434 308.633H504.634C505.568 308.633 506.323 308.433 506.901 308.033C507.479 307.633 507.768 306.967 507.768 306.033V305.833C507.768 304.9 507.479 304.233 506.901 303.833C506.323 303.433 505.568 303.233 504.634 303.233H501.434V308.633ZM501.434 299.033H504.634C505.568 299.033 506.323 298.844 506.901 298.467C507.479 298.067 507.768 297.4 507.768 296.467V296.267C507.768 295.333 507.479 294.678 506.901 294.3C506.323 293.9 505.568 293.7 504.634 293.7H501.434V299.033Z" fill="white"/>
<path d="M486.191 285.333L489.991 286.533L480.024 317L476.191 315.8L486.191 285.333Z" fill="white"/>
<path d="M466.647 307.833H458.714L457.58 312.833H452.98L458.547 289.5H466.814L472.38 312.833H467.78L466.647 307.833ZM459.647 303.633H465.68L462.98 291.7H462.38L459.647 303.633Z" fill="white"/>
<path d="M417.961 305.933C417.983 306.422 418.094 306.878 418.294 307.3C418.516 307.7 418.805 308.056 419.161 308.367C419.539 308.656 419.961 308.889 420.427 309.067C420.916 309.222 421.427 309.3 421.961 309.3C423.005 309.3 423.805 309.122 424.361 308.767C424.916 308.389 425.316 307.945 425.561 307.433L429.161 309.433C428.961 309.856 428.683 310.3 428.327 310.767C427.972 311.211 427.505 311.622 426.927 312C426.372 312.378 425.683 312.689 424.861 312.933C424.061 313.178 423.116 313.3 422.027 313.3C420.783 313.3 419.65 313.1 418.627 312.7C417.605 312.3 416.716 311.722 415.961 310.967C415.227 310.211 414.65 309.289 414.227 308.2C413.827 307.111 413.627 305.878 413.627 304.5V304.3C413.627 303.033 413.839 301.878 414.261 300.833C414.705 299.789 415.305 298.9 416.061 298.167C416.816 297.433 417.694 296.867 418.694 296.467C419.716 296.045 420.805 295.833 421.961 295.833C423.383 295.833 424.605 296.089 425.627 296.6C426.65 297.089 427.494 297.722 428.161 298.5C428.827 299.256 429.316 300.1 429.627 301.033C429.939 301.945 430.094 302.833 430.094 303.7V305.933H417.961ZM421.927 299.633C420.861 299.633 419.994 299.911 419.327 300.467C418.661 301 418.227 301.622 418.027 302.333H425.827C425.694 301.556 425.272 300.911 424.561 300.4C423.872 299.889 422.994 299.633 421.927 299.633Z" fill="white"/>
<path d="M405.65 310.433H405.05C404.873 310.811 404.65 311.178 404.384 311.533C404.139 311.867 403.806 312.167 403.384 312.433C402.984 312.7 402.495 312.911 401.917 313.067C401.361 313.222 400.684 313.3 399.884 313.3C398.861 313.3 397.906 313.122 397.017 312.767C396.15 312.389 395.384 311.845 394.717 311.133C394.073 310.4 393.562 309.511 393.184 308.467C392.828 307.422 392.65 306.222 392.65 304.867V304.267C392.65 302.933 392.839 301.745 393.217 300.7C393.617 299.656 394.15 298.778 394.817 298.067C395.506 297.333 396.295 296.778 397.184 296.4C398.095 296.022 399.05 295.833 400.05 295.833C401.384 295.833 402.439 296.089 403.217 296.6C403.995 297.089 404.606 297.789 405.05 298.7H405.65V296.3H409.85V316.9C409.85 317.656 409.606 318.278 409.117 318.767C408.65 319.256 408.039 319.5 407.284 319.5H396.15V315.5H404.75C405.35 315.5 405.65 315.167 405.65 314.5V310.433ZM401.25 309.3C402.562 309.3 403.617 308.889 404.417 308.067C405.239 307.222 405.65 306.122 405.65 304.767V304.367C405.65 303.011 405.239 301.922 404.417 301.1C403.617 300.256 402.562 299.833 401.25 299.833C399.939 299.833 398.873 300.245 398.05 301.067C397.25 301.867 396.85 302.967 396.85 304.367V304.767C396.85 306.167 397.25 307.278 398.05 308.1C398.873 308.9 399.939 309.3 401.25 309.3Z" fill="white"/>
<path d="M384.14 310.433C383.696 311.478 383.073 312.222 382.273 312.667C381.473 313.089 380.54 313.3 379.473 313.3C378.473 313.3 377.529 313.111 376.64 312.733C375.773 312.356 375.007 311.8 374.34 311.067C373.673 310.333 373.14 309.445 372.74 308.4C372.362 307.356 372.173 306.167 372.173 304.833V304.3C372.173 302.989 372.362 301.811 372.74 300.767C373.118 299.722 373.629 298.833 374.273 298.1C374.918 297.367 375.662 296.811 376.507 296.433C377.373 296.033 378.296 295.833 379.273 295.833C380.451 295.833 381.396 296.033 382.107 296.433C382.84 296.833 383.418 297.456 383.84 298.3H384.44V296.3H388.64V307.833C388.64 308.5 388.94 308.833 389.54 308.833H390.173V312.833H387.307C386.551 312.833 385.929 312.611 385.44 312.167C384.973 311.722 384.74 311.145 384.74 310.433H384.14ZM380.407 309.3C381.629 309.3 382.607 308.9 383.34 308.1C384.073 307.278 384.44 306.167 384.44 304.767V304.367C384.44 302.967 384.073 301.867 383.34 301.067C382.607 300.245 381.629 299.833 380.407 299.833C379.184 299.833 378.207 300.245 377.473 301.067C376.74 301.867 376.373 302.967 376.373 304.367V304.767C376.373 306.167 376.74 307.278 377.473 308.1C378.207 308.9 379.184 309.3 380.407 309.3Z" fill="white"/>
<path d="M357.23 304.033V312.833H352.83V289.5H361.963C363.163 289.5 364.208 289.7 365.097 290.1C365.986 290.478 366.719 290.989 367.297 291.633C367.897 292.256 368.341 292.978 368.63 293.8C368.941 294.6 369.097 295.422 369.097 296.267V297.067C369.097 297.933 368.941 298.789 368.63 299.633C368.341 300.456 367.897 301.2 367.297 301.867C366.719 302.511 365.986 303.033 365.097 303.433C364.208 303.833 363.163 304.033 361.963 304.033H357.23ZM357.23 299.833H361.53C362.508 299.833 363.275 299.567 363.83 299.033C364.408 298.5 364.697 297.811 364.697 296.967V296.567C364.697 295.722 364.408 295.033 363.83 294.5C363.275 293.967 362.508 293.7 361.53 293.7H357.23V299.833Z" fill="white"/>
<path d="M315.91 305.933C315.932 306.422 316.043 306.878 316.243 307.3C316.466 307.7 316.754 308.056 317.11 308.367C317.488 308.656 317.91 308.889 318.377 309.067C318.866 309.222 319.377 309.3 319.91 309.3C320.954 309.3 321.754 309.122 322.31 308.767C322.866 308.389 323.266 307.945 323.51 307.433L327.11 309.433C326.91 309.856 326.632 310.3 326.277 310.767C325.921 311.211 325.454 311.622 324.877 312C324.321 312.378 323.632 312.689 322.81 312.933C322.01 313.178 321.066 313.3 319.977 313.3C318.732 313.3 317.599 313.1 316.577 312.7C315.554 312.3 314.666 311.722 313.91 310.967C313.177 310.211 312.599 309.289 312.177 308.2C311.777 307.111 311.577 305.878 311.577 304.5V304.3C311.577 303.033 311.788 301.878 312.21 300.833C312.654 299.789 313.254 298.9 314.01 298.167C314.766 297.433 315.643 296.867 316.643 296.467C317.666 296.045 318.754 295.833 319.91 295.833C321.332 295.833 322.554 296.089 323.577 296.6C324.599 297.089 325.443 297.722 326.11 298.5C326.777 299.256 327.266 300.1 327.577 301.033C327.888 301.945 328.043 302.833 328.043 303.7V305.933H315.91ZM319.877 299.633C318.81 299.633 317.943 299.911 317.277 300.467C316.61 301 316.177 301.622 315.977 302.333H323.777C323.643 301.556 323.221 300.911 322.51 300.4C321.821 299.889 320.943 299.633 319.877 299.633Z" fill="white"/>
<path d="M297.066 300.967C297.066 301.5 297.344 301.889 297.899 302.133C298.455 302.356 299.466 302.545 300.933 302.7C302.621 302.878 303.999 303.389 305.066 304.233C306.133 305.056 306.666 306.211 306.666 307.7V307.9C306.666 309.545 306.066 310.856 304.866 311.833C303.666 312.811 301.977 313.3 299.799 313.3C298.51 313.3 297.41 313.133 296.499 312.8C295.588 312.467 294.833 312.056 294.233 311.567C293.633 311.056 293.166 310.5 292.833 309.9C292.521 309.278 292.31 308.678 292.199 308.1L296.066 306.833C296.244 307.545 296.61 308.167 297.166 308.7C297.744 309.233 298.621 309.5 299.799 309.5C300.844 309.5 301.555 309.345 301.933 309.033C302.333 308.7 302.533 308.345 302.533 307.967C302.533 307.745 302.477 307.545 302.366 307.367C302.277 307.167 302.099 306.989 301.833 306.833C301.566 306.656 301.199 306.511 300.733 306.4C300.288 306.289 299.721 306.2 299.033 306.133C297.166 305.978 295.677 305.5 294.566 304.7C293.477 303.878 292.933 302.678 292.933 301.1V300.9C292.933 300.078 293.11 299.356 293.466 298.733C293.821 298.111 294.288 297.589 294.866 297.167C295.444 296.722 296.11 296.389 296.866 296.167C297.621 295.945 298.399 295.833 299.199 295.833C300.244 295.833 301.144 295.967 301.899 296.233C302.677 296.478 303.333 296.811 303.866 297.233C304.399 297.633 304.833 298.089 305.166 298.6C305.499 299.089 305.755 299.567 305.933 300.033L302.133 301.567C301.933 300.967 301.588 300.5 301.099 300.167C300.61 299.811 299.977 299.633 299.199 299.633C298.488 299.633 297.955 299.767 297.599 300.033C297.244 300.278 297.066 300.589 297.066 300.967Z" fill="white"/>
<path d="M282.089 310.433C281.645 311.478 281.023 312.222 280.223 312.667C279.423 313.089 278.489 313.3 277.423 313.3C276.423 313.3 275.478 313.111 274.589 312.733C273.723 312.356 272.956 311.8 272.289 311.067C271.623 310.333 271.089 309.445 270.689 308.4C270.311 307.356 270.123 306.167 270.123 304.833V304.3C270.123 302.989 270.311 301.811 270.689 300.767C271.067 299.722 271.578 298.833 272.223 298.1C272.867 297.367 273.611 296.811 274.456 296.433C275.323 296.033 276.245 295.833 277.223 295.833C278.4 295.833 279.345 296.033 280.056 296.433C280.789 296.833 281.367 297.456 281.789 298.3H282.389V296.3H286.589V307.833C286.589 308.5 286.889 308.833 287.489 308.833H288.123V312.833H285.256C284.5 312.833 283.878 312.611 283.389 312.167C282.923 311.722 282.689 311.145 282.689 310.433H282.089ZM278.356 309.3C279.578 309.3 280.556 308.9 281.289 308.1C282.023 307.278 282.389 306.167 282.389 304.767V304.367C282.389 302.967 282.023 301.867 281.289 301.067C280.556 300.245 279.578 299.833 278.356 299.833C277.134 299.833 276.156 300.245 275.423 301.067C274.689 301.867 274.323 302.967 274.323 304.367V304.767C274.323 306.167 274.689 307.278 275.423 308.1C276.156 308.9 277.134 309.3 278.356 309.3Z" fill="white"/>
<path d="M258.645 309.3C259.49 309.3 260.179 309.178 260.712 308.933C261.267 308.667 261.69 308.322 261.979 307.9C262.29 307.455 262.501 306.955 262.612 306.4C262.723 305.822 262.779 305.233 262.779 304.633V304.033H267.179V304.633C267.179 307.411 266.445 309.555 264.979 311.067C263.534 312.555 261.423 313.3 258.645 313.3C255.979 313.3 253.867 312.489 252.312 310.867C250.756 309.244 249.979 306.878 249.979 303.767V298.567C249.979 297.078 250.179 295.744 250.579 294.567C250.979 293.367 251.556 292.367 252.312 291.567C253.067 290.744 253.979 290.122 255.045 289.7C256.112 289.255 257.312 289.033 258.645 289.033C260.023 289.033 261.245 289.233 262.312 289.633C263.379 290.033 264.267 290.611 264.979 291.367C265.712 292.122 266.256 293.033 266.612 294.1C266.99 295.167 267.179 296.367 267.179 297.7V298.3H262.779V297.7C262.779 297.144 262.712 296.589 262.579 296.033C262.445 295.478 262.223 294.978 261.912 294.533C261.601 294.089 261.179 293.733 260.645 293.467C260.112 293.178 259.445 293.033 258.645 293.033C257.912 293.033 257.279 293.178 256.745 293.467C256.212 293.733 255.767 294.111 255.412 294.6C255.056 295.067 254.79 295.622 254.612 296.267C254.456 296.889 254.379 297.544 254.379 298.233V304.1C254.379 304.855 254.456 305.555 254.612 306.2C254.767 306.822 255.012 307.367 255.345 307.833C255.679 308.3 256.112 308.667 256.645 308.933C257.201 309.178 257.867 309.3 258.645 309.3Z" fill="white"/>
<path d="M213.859 305.933C213.881 306.422 213.993 306.878 214.193 307.3C214.415 307.7 214.704 308.056 215.059 308.367C215.437 308.656 215.859 308.889 216.326 309.067C216.815 309.222 217.326 309.3 217.859 309.3C218.904 309.3 219.704 309.122 220.259 308.767C220.815 308.389 221.215 307.945 221.459 307.433L225.059 309.433C224.859 309.856 224.581 310.3 224.226 310.767C223.87 311.211 223.404 311.622 222.826 312C222.27 312.378 221.581 312.689 220.759 312.933C219.959 313.178 219.015 313.3 217.926 313.3C216.681 313.3 215.548 313.1 214.526 312.7C213.504 312.3 212.615 311.722 211.859 310.967C211.126 310.211 210.548 309.289 210.126 308.2C209.726 307.111 209.526 305.878 209.526 304.5V304.3C209.526 303.033 209.737 301.878 210.159 300.833C210.604 299.789 211.204 298.9 211.959 298.167C212.715 297.433 213.593 296.867 214.593 296.467C215.615 296.045 216.704 295.833 217.859 295.833C219.281 295.833 220.504 296.089 221.526 296.6C222.548 297.089 223.393 297.722 224.059 298.5C224.726 299.256 225.215 300.1 225.526 301.033C225.837 301.945 225.993 302.833 225.993 303.7V305.933H213.859ZM217.826 299.633C216.759 299.633 215.893 299.911 215.226 300.467C214.559 301 214.126 301.622 213.926 302.333H221.726C221.593 301.556 221.17 300.911 220.459 300.4C219.77 299.889 218.893 299.633 217.826 299.633Z" fill="white"/>
<path d="M195.015 300.967C195.015 301.5 195.293 301.889 195.848 302.133C196.404 302.356 197.415 302.545 198.882 302.7C200.571 302.878 201.948 303.389 203.015 304.233C204.082 305.056 204.615 306.211 204.615 307.7V307.9C204.615 309.545 204.015 310.856 202.815 311.833C201.615 312.811 199.926 313.3 197.748 313.3C196.46 313.3 195.36 313.133 194.448 312.8C193.537 312.467 192.782 312.056 192.182 311.567C191.582 311.056 191.115 310.5 190.782 309.9C190.471 309.278 190.26 308.678 190.148 308.1L194.015 306.833C194.193 307.545 194.56 308.167 195.115 308.7C195.693 309.233 196.571 309.5 197.748 309.5C198.793 309.5 199.504 309.345 199.882 309.033C200.282 308.7 200.482 308.345 200.482 307.967C200.482 307.745 200.426 307.545 200.315 307.367C200.226 307.167 200.048 306.989 199.782 306.833C199.515 306.656 199.148 306.511 198.682 306.4C198.237 306.289 197.671 306.2 196.982 306.133C195.115 305.978 193.626 305.5 192.515 304.7C191.426 303.878 190.882 302.678 190.882 301.1V300.9C190.882 300.078 191.06 299.356 191.415 298.733C191.771 298.111 192.237 297.589 192.815 297.167C193.393 296.722 194.06 296.389 194.815 296.167C195.571 295.945 196.348 295.833 197.148 295.833C198.193 295.833 199.093 295.967 199.848 296.233C200.626 296.478 201.282 296.811 201.815 297.233C202.348 297.633 202.782 298.089 203.115 298.6C203.448 299.089 203.704 299.567 203.882 300.033L200.082 301.567C199.882 300.967 199.537 300.5 199.048 300.167C198.56 299.811 197.926 299.633 197.148 299.633C196.437 299.633 195.904 299.767 195.548 300.033C195.193 300.278 195.015 300.589 195.015 300.967Z" fill="white"/>
<path d="M185.338 289.5V304.767C185.338 307.433 184.627 309.522 183.205 311.033C181.805 312.544 179.716 313.3 176.938 313.3C174.16 313.3 172.06 312.544 170.638 311.033C169.238 309.522 168.538 307.433 168.538 304.767V289.5H172.938V304.767C172.938 306.144 173.26 307.222 173.905 308C174.549 308.778 175.56 309.167 176.938 309.167C178.316 309.167 179.327 308.778 179.971 308C180.616 307.222 180.938 306.144 180.938 304.767V289.5H185.338Z" fill="white"/>
<path d="M75 454.833C75 443.327 84.3274 434 95.8333 434H804.167C815.673 434 825 443.327 825 454.833V579.833C825 591.339 815.673 600.667 804.167 600.667H95.8333C84.3274 600.667 75 591.339 75 579.833V454.833Z" fill="black"/>
<path fill-rule="evenodd" clip-rule="evenodd" d="M804.167 438.167H95.8333C86.6286 438.167 79.1667 445.629 79.1667 454.833V579.833C79.1667 589.038 86.6286 596.5 95.8333 596.5H804.167C813.371 596.5 820.833 589.038 820.833 579.833V454.833C820.833 445.629 813.371 438.167 804.167 438.167ZM95.8333 434C84.3274 434 75 443.327 75 454.833V579.833C75 591.339 84.3274 600.667 95.8333 600.667H804.167C815.673 600.667 825 591.339 825 579.833V454.833C825 443.327 815.673 434 804.167 434H95.8333Z" fill="#292524"/>
<path d="M108.333 488.167C108.333 476.661 117.661 467.333 129.167 467.333H187.5C199.006 467.333 208.333 476.661 208.333 488.167V546.5C208.333 558.006 199.006 567.333 187.5 567.333H129.167C117.661 567.333 108.333 558.006 108.333 546.5V488.167Z" fill="#1C1917"/>
<path d="M161.458 511.292H183.333L155.208 551.916V523.791H133.333L161.458 483.167V511.292Z" fill="#A3E635"/>
<path d="M719.045 517.967C719.045 518.5 719.323 518.889 719.879 519.133C720.434 519.356 721.445 519.545 722.912 519.7C724.601 519.878 725.979 520.389 727.045 521.233C728.112 522.056 728.645 523.211 728.645 524.7V524.9C728.645 526.545 728.045 527.856 726.845 528.833C725.645 529.811 723.956 530.3 721.779 530.3C720.49 530.3 719.39 530.133 718.479 529.8C717.568 529.467 716.812 529.056 716.212 528.567C715.612 528.056 715.145 527.5 714.812 526.9C714.501 526.278 714.29 525.678 714.179 525.1L718.045 523.833C718.223 524.545 718.59 525.167 719.145 525.7C719.723 526.233 720.601 526.5 721.779 526.5C722.823 526.5 723.534 526.345 723.912 526.033C724.312 525.7 724.512 525.345 724.512 524.967C724.512 524.745 724.456 524.545 724.345 524.367C724.256 524.167 724.079 523.989 723.812 523.833C723.545 523.656 723.179 523.511 722.712 523.4C722.268 523.289 721.701 523.2 721.012 523.133C719.145 522.978 717.657 522.5 716.545 521.7C715.457 520.878 714.912 519.678 714.912 518.1V517.9C714.912 517.078 715.09 516.356 715.445 515.733C715.801 515.111 716.268 514.589 716.845 514.167C717.423 513.722 718.09 513.389 718.845 513.167C719.601 512.945 720.379 512.833 721.179 512.833C722.223 512.833 723.123 512.967 723.879 513.233C724.657 513.478 725.312 513.811 725.845 514.233C726.379 514.633 726.812 515.089 727.145 515.6C727.479 516.089 727.734 516.567 727.912 517.033L724.112 518.567C723.912 517.967 723.568 517.5 723.079 517.167C722.59 516.811 721.957 516.633 721.179 516.633C720.468 516.633 719.934 516.767 719.579 517.033C719.223 517.278 719.045 517.589 719.045 517.967Z" fill="white"/>
<path d="M692.568 513.3H699.568V515.7H700.168C700.479 514.789 701.001 514.089 701.735 513.6C702.49 513.089 703.39 512.833 704.435 512.833C706.079 512.833 707.401 513.356 708.401 514.4C709.401 515.422 709.901 516.989 709.901 519.1V519.833L705.568 520.233V519.767C705.568 518.856 705.335 518.133 704.868 517.6C704.401 517.045 703.701 516.767 702.768 516.767C701.835 516.767 701.101 517.089 700.568 517.733C700.035 518.378 699.768 519.3 699.768 520.5V525.833H703.568V529.833H692.168V525.833H695.568V517.3H692.568V513.3Z" fill="white"/>
<path d="M676.658 522.933C676.68 523.422 676.791 523.878 676.991 524.3C677.214 524.7 677.502 525.056 677.858 525.367C678.236 525.656 678.658 525.889 679.125 526.067C679.614 526.222 680.125 526.3 680.658 526.3C681.702 526.3 682.502 526.122 683.058 525.767C683.614 525.389 684.014 524.945 684.258 524.433L687.858 526.433C687.658 526.856 687.38 527.3 687.025 527.767C686.669 528.211 686.203 528.622 685.625 529C685.069 529.378 684.38 529.689 683.558 529.933C682.758 530.178 681.814 530.3 680.725 530.3C679.48 530.3 678.347 530.1 677.325 529.7C676.302 529.3 675.414 528.722 674.658 527.967C673.925 527.211 673.347 526.289 672.925 525.2C672.525 524.111 672.325 522.878 672.325 521.5V521.3C672.325 520.033 672.536 518.878 672.958 517.833C673.402 516.789 674.003 515.9 674.758 515.167C675.514 514.433 676.391 513.867 677.391 513.467C678.414 513.045 679.502 512.833 680.658 512.833C682.08 512.833 683.303 513.089 684.325 513.6C685.347 514.089 686.191 514.722 686.858 515.5C687.525 516.256 688.014 517.1 688.325 518.033C688.636 518.945 688.791 519.833 688.791 520.7V522.933H676.658ZM680.625 516.633C679.558 516.633 678.691 516.911 678.025 517.467C677.358 518 676.925 518.622 676.725 519.333H684.525C684.391 518.556 683.969 517.911 683.258 517.4C682.569 516.889 681.691 516.633 680.625 516.633Z" fill="white"/>
<path d="M652.081 513.3H656.981V506.5H661.181V513.3H667.148V517.3H661.181V524.833C661.181 525.5 661.481 525.833 662.081 525.833H666.548V529.833H659.548C658.792 529.833 658.17 529.589 657.681 529.1C657.214 528.611 656.981 527.989 656.981 527.233V517.3H652.081V513.3Z" fill="white"/>
<path d="M632.038 525.833H637.838V510.5H632.238V506.5H642.038V525.833H647.438V529.833H632.038V525.833Z" fill="white"/>
<path d="M612.027 525.833H617.627V517.3H612.427V513.3H621.827V525.833H626.627V529.833H612.027V525.833ZM622.861 508.4C622.861 508.845 622.772 509.267 622.594 509.667C622.438 510.045 622.216 510.378 621.927 510.667C621.638 510.933 621.294 511.156 620.894 511.333C620.516 511.489 620.116 511.567 619.694 511.567C619.25 511.567 618.838 511.489 618.461 511.333C618.083 511.156 617.75 510.933 617.461 510.667C617.172 510.378 616.938 510.045 616.761 509.667C616.605 509.267 616.527 508.845 616.527 508.4C616.527 507.956 616.605 507.545 616.761 507.167C616.938 506.767 617.172 506.433 617.461 506.167C617.75 505.878 618.083 505.656 618.461 505.5C618.838 505.322 619.25 505.233 619.694 505.233C620.116 505.233 620.516 505.322 620.894 505.5C621.294 505.656 621.638 505.878 621.927 506.167C622.216 506.433 622.438 506.767 622.594 507.167C622.772 507.545 622.861 507.956 622.861 508.4Z" fill="white"/>
<path d="M591.651 506.5H606.584V510.7H596.051V516.033H606.384V520.233H596.051V529.833H591.651V506.5Z" fill="white"/>
<path d="M561.697 513.3H565.897V533.9C565.897 534.656 565.653 535.278 565.164 535.767C564.697 536.256 564.086 536.5 563.33 536.5H553.497V532.5H560.797C561.397 532.5 561.697 532.167 561.697 531.5V527.434H561.097C560.364 529.345 558.786 530.3 556.364 530.3C555.542 530.3 554.775 530.167 554.064 529.9C553.353 529.634 552.73 529.223 552.197 528.667C551.664 528.111 551.242 527.423 550.93 526.6C550.642 525.756 550.497 524.767 550.497 523.634V513.3H554.697V522.767C554.697 523.945 554.975 524.867 555.53 525.534C556.086 526.178 556.919 526.5 558.03 526.5C559.297 526.5 560.219 526.1 560.797 525.3C561.397 524.478 561.697 523.367 561.697 521.967V513.3Z" fill="white"/>
<path d="M529.287 513.3H536.287V515.7H536.887C537.198 514.789 537.72 514.089 538.453 513.6C539.209 513.089 540.109 512.833 541.153 512.833C542.798 512.833 544.12 513.356 545.12 514.4C546.12 515.422 546.62 516.989 546.62 519.1V519.833L542.287 520.233V519.767C542.287 518.856 542.053 518.133 541.587 517.6C541.12 517.045 540.42 516.767 539.487 516.767C538.553 516.767 537.82 517.089 537.287 517.733C536.753 518.378 536.487 519.3 536.487 520.5V525.833H540.287V529.833H528.887V525.833H532.287V517.3H529.287V513.3Z" fill="white"/>
<path d="M520.377 527.433C519.932 528.478 519.31 529.222 518.51 529.667C517.71 530.089 516.777 530.3 515.71 530.3C514.71 530.3 513.766 530.111 512.877 529.733C512.01 529.356 511.243 528.8 510.577 528.067C509.91 527.333 509.377 526.445 508.977 525.4C508.599 524.356 508.41 523.167 508.41 521.833V521.3C508.41 519.989 508.599 518.811 508.977 517.767C509.355 516.722 509.866 515.833 510.51 515.1C511.155 514.367 511.899 513.811 512.743 513.433C513.61 513.033 514.532 512.833 515.51 512.833C516.688 512.833 517.632 513.033 518.343 513.433C519.077 513.833 519.655 514.456 520.077 515.3H520.677V513.3H524.877V524.833C524.877 525.5 525.177 525.833 525.777 525.833H526.41V529.833H523.543C522.788 529.833 522.166 529.611 521.677 529.167C521.21 528.722 520.977 528.145 520.977 527.433H520.377ZM516.643 526.3C517.866 526.3 518.843 525.9 519.577 525.1C520.31 524.278 520.677 523.167 520.677 521.767V521.367C520.677 519.967 520.31 518.867 519.577 518.067C518.843 517.245 517.866 516.833 516.643 516.833C515.421 516.833 514.443 517.245 513.71 518.067C512.977 518.867 512.61 519.967 512.61 521.367V521.767C512.61 523.167 512.977 524.278 513.71 525.1C514.443 525.9 515.421 526.3 516.643 526.3Z" fill="white"/>
<path d="M488.466 513.3H495.466V515.7H496.066C496.378 514.789 496.9 514.089 497.633 513.6C498.389 513.089 499.289 512.833 500.333 512.833C501.978 512.833 503.3 513.356 504.3 514.4C505.3 515.422 505.8 516.989 505.8 519.1V519.833L501.466 520.233V519.767C501.466 518.856 501.233 518.133 500.766 517.6C500.3 517.045 499.6 516.767 498.666 516.767C497.733 516.767 497 517.089 496.466 517.733C495.933 518.378 495.666 519.3 495.666 520.5V525.833H499.466V529.833H488.066V525.833H491.466V517.3H488.466V513.3Z" fill="white"/>
<path d="M472.356 529.833H468.156V506.5H472.356V515.7H472.956C473.401 514.789 474.045 514.089 474.89 513.6C475.734 513.089 476.812 512.833 478.123 512.833C479.101 512.833 480.023 513.022 480.89 513.4C481.778 513.778 482.545 514.333 483.19 515.067C483.856 515.778 484.378 516.656 484.756 517.7C485.156 518.744 485.356 519.933 485.356 521.267V521.867C485.356 523.222 485.167 524.422 484.79 525.467C484.412 526.511 483.901 527.4 483.256 528.133C482.612 528.844 481.845 529.389 480.956 529.767C480.09 530.122 479.145 530.3 478.123 530.3C477.367 530.3 476.712 530.222 476.156 530.067C475.601 529.911 475.112 529.7 474.69 529.433C474.29 529.167 473.945 528.867 473.656 528.533C473.39 528.178 473.156 527.811 472.956 527.433H472.356V529.833ZM476.756 526.3C478.067 526.3 479.123 525.9 479.923 525.1C480.745 524.278 481.156 523.167 481.156 521.767V521.367C481.156 519.967 480.745 518.867 479.923 518.067C479.123 517.244 478.067 516.833 476.756 516.833C475.445 516.833 474.378 517.256 473.556 518.1C472.756 518.922 472.356 520.011 472.356 521.367V521.767C472.356 523.122 472.756 524.222 473.556 525.067C474.378 525.889 475.445 526.3 476.756 526.3Z" fill="white"/>
<path d="M448.746 525.833H454.346V517.3H449.146V513.3H458.546V525.833H463.346V529.833H448.746V525.833ZM459.579 508.4C459.579 508.845 459.491 509.267 459.313 509.667C459.157 510.045 458.935 510.378 458.646 510.667C458.357 510.933 458.013 511.156 457.613 511.333C457.235 511.489 456.835 511.567 456.413 511.567C455.968 511.567 455.557 511.489 455.179 511.333C454.802 511.156 454.468 510.933 454.179 510.667C453.891 510.378 453.657 510.045 453.479 509.667C453.324 509.267 453.246 508.845 453.246 508.4C453.246 507.956 453.324 507.545 453.479 507.167C453.657 506.767 453.891 506.433 454.179 506.167C454.468 505.878 454.802 505.656 455.179 505.5C455.557 505.322 455.968 505.233 456.413 505.233C456.835 505.233 457.235 505.322 457.613 505.5C458.013 505.656 458.357 505.878 458.646 506.167C458.935 506.433 459.157 506.767 459.313 507.167C459.491 507.545 459.579 507.956 459.579 508.4Z" fill="white"/>
<path d="M428.169 506.5H432.569V525.633H443.169V529.833H428.169V506.5Z" fill="white"/>
<path d="M390.916 522.933C390.938 523.422 391.049 523.878 391.249 524.3C391.471 524.7 391.76 525.056 392.116 525.367C392.494 525.656 392.916 525.889 393.383 526.067C393.871 526.222 394.383 526.3 394.916 526.3C395.96 526.3 396.76 526.122 397.316 525.767C397.871 525.389 398.271 524.945 398.516 524.433L402.116 526.433C401.916 526.856 401.638 527.3 401.283 527.767C400.927 528.211 400.46 528.622 399.883 529C399.327 529.378 398.638 529.689 397.816 529.933C397.016 530.178 396.071 530.3 394.983 530.3C393.738 530.3 392.605 530.1 391.583 529.7C390.56 529.3 389.671 528.722 388.916 527.967C388.183 527.211 387.605 526.289 387.183 525.2C386.783 524.111 386.583 522.878 386.583 521.5V521.3C386.583 520.033 386.794 518.878 387.216 517.833C387.66 516.789 388.26 515.9 389.016 515.167C389.771 514.433 390.649 513.867 391.649 513.467C392.671 513.045 393.76 512.833 394.916 512.833C396.338 512.833 397.56 513.089 398.583 513.6C399.605 514.089 400.449 514.722 401.116 515.5C401.783 516.256 402.271 517.1 402.583 518.033C402.894 518.945 403.049 519.833 403.049 520.7V522.933H390.916ZM394.883 516.633C393.816 516.633 392.949 516.911 392.283 517.467C391.616 518 391.183 518.622 390.983 519.333H398.783C398.649 518.556 398.227 517.911 397.516 517.4C396.827 516.889 395.949 516.633 394.883 516.633Z" fill="white"/>
<path d="M382.939 523.767C382.561 525.722 381.661 527.3 380.239 528.5C378.839 529.7 376.961 530.3 374.606 530.3C373.383 530.3 372.239 530.111 371.172 529.733C370.128 529.356 369.217 528.811 368.439 528.1C367.661 527.389 367.05 526.511 366.606 525.467C366.161 524.422 365.939 523.233 365.939 521.9V521.5C365.939 520.167 366.161 518.967 366.606 517.9C367.05 516.833 367.661 515.922 368.439 515.167C369.239 514.411 370.161 513.833 371.206 513.433C372.272 513.033 373.406 512.833 374.606 512.833C376.917 512.833 378.783 513.433 380.206 514.633C381.65 515.833 382.561 517.411 382.939 519.367L378.806 520.433C378.672 519.456 378.25 518.611 377.539 517.9C376.828 517.189 375.828 516.833 374.539 516.833C373.939 516.833 373.372 516.945 372.839 517.167C372.306 517.389 371.839 517.711 371.439 518.133C371.039 518.533 370.717 519.033 370.472 519.633C370.25 520.211 370.139 520.867 370.139 521.6V521.8C370.139 522.533 370.25 523.189 370.472 523.767C370.717 524.322 371.039 524.789 371.439 525.167C371.839 525.545 372.306 525.833 372.839 526.033C373.372 526.211 373.939 526.3 374.539 526.3C375.828 526.3 376.806 525.978 377.472 525.333C378.161 524.689 378.606 523.822 378.806 522.733L382.939 523.767Z" fill="white"/>
<path d="M345.595 513.3H352.595V515.7H353.195C353.506 514.789 354.029 514.089 354.762 513.6C355.518 513.089 356.418 512.833 357.462 512.833C359.106 512.833 360.429 513.356 361.429 514.4C362.429 515.422 362.929 516.989 362.929 519.1V519.833L358.595 520.233V519.767C358.595 518.856 358.362 518.133 357.895 517.6C357.429 517.045 356.729 516.767 355.795 516.767C354.862 516.767 354.129 517.089 353.595 517.733C353.062 518.378 352.795 519.3 352.795 520.5V525.833H356.595V529.833H345.195V525.833H348.595V517.3H345.595V513.3Z" fill="white"/>
<path d="M337.185 513.3H341.385V529.834H337.185V527.434H336.585C335.852 529.345 334.274 530.3 331.852 530.3C331.03 530.3 330.263 530.167 329.552 529.9C328.841 529.634 328.219 529.223 327.685 528.667C327.152 528.111 326.73 527.423 326.419 526.6C326.13 525.756 325.985 524.767 325.985 523.634V513.3H330.185V522.767C330.185 523.945 330.463 524.867 331.019 525.534C331.574 526.178 332.408 526.5 333.519 526.5C334.785 526.5 335.708 526.1 336.285 525.3C336.885 524.478 337.185 523.367 337.185 521.967V513.3Z" fill="white"/>
<path d="M321.775 521.767C321.775 523.145 321.542 524.367 321.075 525.433C320.609 526.478 319.975 527.367 319.175 528.1C318.375 528.811 317.453 529.356 316.409 529.733C315.386 530.111 314.309 530.3 313.175 530.3C312.042 530.3 310.953 530.111 309.909 529.733C308.886 529.356 307.975 528.811 307.175 528.1C306.375 527.367 305.742 526.478 305.275 525.433C304.809 524.367 304.575 523.145 304.575 521.767V521.367C304.575 520.011 304.809 518.811 305.275 517.767C305.742 516.7 306.375 515.8 307.175 515.067C307.975 514.333 308.886 513.778 309.909 513.4C310.953 513.022 312.042 512.833 313.175 512.833C314.309 512.833 315.386 513.022 316.409 513.4C317.453 513.778 318.375 514.333 319.175 515.067C319.975 515.8 320.609 516.7 321.075 517.767C321.542 518.811 321.775 520.011 321.775 521.367V521.767ZM313.175 526.3C313.775 526.3 314.342 526.2 314.875 526C315.409 525.8 315.875 525.511 316.275 525.133C316.675 524.756 316.986 524.3 317.209 523.767C317.453 523.211 317.575 522.589 317.575 521.9V521.233C317.575 520.545 317.453 519.933 317.209 519.4C316.986 518.845 316.675 518.378 316.275 518C315.875 517.622 315.409 517.333 314.875 517.133C314.342 516.933 313.775 516.833 313.175 516.833C312.575 516.833 312.009 516.933 311.475 517.133C310.942 517.333 310.475 517.622 310.075 518C309.675 518.378 309.353 518.845 309.109 519.4C308.886 519.933 308.775 520.545 308.775 521.233V521.9C308.775 522.589 308.886 523.211 309.109 523.767C309.353 524.3 309.675 524.756 310.075 525.133C310.475 525.511 310.942 525.8 311.475 526C312.009 526.2 312.575 526.3 313.175 526.3Z" fill="white"/>
<path d="M290.432 517.967C290.432 518.5 290.71 518.889 291.265 519.133C291.821 519.356 292.832 519.545 294.299 519.7C295.988 519.878 297.365 520.389 298.432 521.233C299.499 522.056 300.032 523.211 300.032 524.7V524.9C300.032 526.545 299.432 527.856 298.232 528.833C297.032 529.811 295.343 530.3 293.165 530.3C291.877 530.3 290.777 530.133 289.865 529.8C288.954 529.467 288.199 529.056 287.599 528.567C286.999 528.056 286.532 527.5 286.199 526.9C285.888 526.278 285.677 525.678 285.565 525.1L289.432 523.833C289.61 524.545 289.977 525.167 290.532 525.7C291.11 526.233 291.988 526.5 293.165 526.5C294.21 526.5 294.921 526.345 295.299 526.033C295.699 525.7 295.899 525.345 295.899 524.967C295.899 524.745 295.843 524.545 295.732 524.367C295.643 524.167 295.465 523.989 295.199 523.833C294.932 523.656 294.565 523.511 294.099 523.4C293.654 523.289 293.088 523.2 292.399 523.133C290.532 522.978 289.043 522.5 287.932 521.7C286.843 520.878 286.299 519.678 286.299 518.1V517.9C286.299 517.078 286.477 516.356 286.832 515.733C287.188 515.111 287.654 514.589 288.232 514.167C288.81 513.722 289.477 513.389 290.232 513.167C290.988 512.945 291.765 512.833 292.565 512.833C293.61 512.833 294.51 512.967 295.265 513.233C296.043 513.478 296.699 513.811 297.232 514.233C297.765 514.633 298.199 515.089 298.532 515.6C298.865 516.089 299.121 516.567 299.299 517.033L295.499 518.567C295.299 517.967 294.954 517.5 294.465 517.167C293.977 516.811 293.343 516.633 292.565 516.633C291.854 516.633 291.321 516.767 290.965 517.033C290.61 517.278 290.432 517.589 290.432 517.967Z" fill="white"/>
<path d="M268.455 522.933C268.477 523.422 268.588 523.878 268.788 524.3C269.01 524.7 269.299 525.056 269.655 525.367C270.033 525.656 270.455 525.889 270.922 526.067C271.41 526.222 271.922 526.3 272.455 526.3C273.499 526.3 274.299 526.122 274.855 525.767C275.41 525.389 275.81 524.945 276.055 524.433L279.655 526.433C279.455 526.856 279.177 527.3 278.822 527.767C278.466 528.211 277.999 528.622 277.422 529C276.866 529.378 276.177 529.689 275.355 529.933C274.555 530.178 273.61 530.3 272.522 530.3C271.277 530.3 270.144 530.1 269.122 529.7C268.099 529.3 267.21 528.722 266.455 527.967C265.722 527.211 265.144 526.289 264.722 525.2C264.322 524.111 264.122 522.878 264.122 521.5V521.3C264.122 520.033 264.333 518.878 264.755 517.833C265.199 516.789 265.799 515.9 266.555 515.167C267.31 514.433 268.188 513.867 269.188 513.467C270.21 513.045 271.299 512.833 272.455 512.833C273.877 512.833 275.099 513.089 276.122 513.6C277.144 514.089 277.988 514.722 278.655 515.5C279.322 516.256 279.81 517.1 280.122 518.033C280.433 518.945 280.588 519.833 280.588 520.7V522.933H268.455ZM272.422 516.633C271.355 516.633 270.488 516.911 269.822 517.467C269.155 518 268.722 518.622 268.522 519.333H276.322C276.188 518.556 275.766 517.911 275.055 517.4C274.366 516.889 273.488 516.633 272.422 516.633Z" fill="white"/>
<path d="M259.845 529.833H255.445V522.833C255.445 522.3 255.3 521.867 255.012 521.533C254.745 521.2 254.289 521.033 253.645 521.033H248.578V529.833H244.178V506.5H253.112C254.312 506.5 255.367 506.667 256.278 507C257.189 507.333 257.945 507.8 258.545 508.4C259.167 508.978 259.634 509.656 259.945 510.433C260.278 511.211 260.445 512.044 260.445 512.933V513.733C260.445 514.689 260.189 515.589 259.678 516.433C259.167 517.256 258.378 517.889 257.312 518.333V518.933C258.089 519.022 258.7 519.322 259.145 519.833C259.612 520.344 259.845 520.989 259.845 521.767V529.833ZM248.578 516.833H252.778C253.845 516.833 254.656 516.589 255.212 516.1C255.767 515.589 256.045 514.878 256.045 513.967V513.567C256.045 512.789 255.767 512.122 255.212 511.567C254.656 510.989 253.845 510.7 252.778 510.7H248.578V516.833Z" fill="white"/>
<path d="M0 671.833C0 660.327 9.3274 651 20.8333 651H729.167C740.673 651 750 660.327 750 671.833V796.833C750 808.339 740.673 817.667 729.167 817.667H20.8333C9.32741 817.667 0 808.339 0 796.833V671.833Z" fill="black"/>
<path fill-rule="evenodd" clip-rule="evenodd" d="M729.167 655.167H20.8333C11.6286 655.167 4.16667 662.629 4.16667 671.833V796.833C4.16667 806.038 11.6286 813.5 20.8333 813.5H729.167C738.371 813.5 745.833 806.038 745.833 796.833V671.833C745.833 662.629 738.371 655.167 729.167 655.167ZM20.8333 651C9.3274 651 0 660.327 0 671.833V796.833C0 808.339 9.32741 817.667 20.8333 817.667H729.167C740.673 817.667 750 808.339 750 796.833V671.833C750 660.327 740.673 651 729.167 651H20.8333Z" fill="#292524"/>
<path d="M33.3335 705.167C33.3335 693.661 42.6609 684.333 54.1668 684.333H112.5C124.006 684.333 133.333 693.661 133.333 705.167V763.5C133.333 775.006 124.006 784.334 112.5 784.334H54.1668C42.6609 784.334 33.3335 775.006 33.3335 763.5V705.167Z" fill="#1C1917"/>
<path d="M86.458 728.292H108.333L80.208 768.916V740.791H58.333L86.458 700.167V728.292Z" fill="#A3E635"/>
<path d="M519.997 739.933C520.02 740.422 520.131 740.878 520.331 741.3C520.553 741.7 520.842 742.056 521.197 742.367C521.575 742.656 521.997 742.889 522.464 743.067C522.953 743.222 523.464 743.3 523.997 743.3C525.042 743.3 525.842 743.122 526.397 742.767C526.953 742.389 527.353 741.945 527.597 741.433L531.197 743.433C530.997 743.856 530.72 744.3 530.364 744.767C530.009 745.211 529.542 745.622 528.964 746C528.409 746.378 527.72 746.689 526.897 746.933C526.097 747.178 525.153 747.3 524.064 747.3C522.82 747.3 521.686 747.1 520.664 746.7C519.642 746.3 518.753 745.722 517.997 744.967C517.264 744.211 516.686 743.289 516.264 742.2C515.864 741.111 515.664 739.878 515.664 738.5V738.3C515.664 737.033 515.875 735.878 516.297 734.833C516.742 733.789 517.342 732.9 518.097 732.167C518.853 731.433 519.731 730.867 520.731 730.467C521.753 730.045 522.842 729.833 523.997 729.833C525.42 729.833 526.642 730.089 527.664 730.6C528.686 731.089 529.531 731.722 530.197 732.5C530.864 733.256 531.353 734.1 531.664 735.033C531.975 735.945 532.131 736.833 532.131 737.7V739.933H519.997ZM523.964 733.633C522.897 733.633 522.031 733.911 521.364 734.467C520.697 735 520.264 735.622 520.064 736.333H527.864C527.731 735.556 527.309 734.911 526.597 734.4C525.909 733.889 525.031 733.633 523.964 733.633Z" fill="white"/>
<path d="M495.088 730.3H502.088V732.7H502.688C502.999 731.789 503.521 731.089 504.254 730.6C505.01 730.089 505.91 729.833 506.954 729.833C508.599 729.833 509.921 730.356 510.921 731.4C511.921 732.422 512.421 733.989 512.421 736.1V736.833L508.088 737.233V736.767C508.088 735.856 507.854 735.133 507.388 734.6C506.921 734.045 506.221 733.767 505.288 733.767C504.354 733.767 503.621 734.089 503.088 734.733C502.554 735.378 502.287 736.3 502.287 737.5V742.833H506.087V746.833H494.688V742.833H498.088V734.3H495.088V730.3Z" fill="white"/>
<path d="M486.678 730.3H490.878V746.834H486.678V744.434H486.078C485.344 746.345 483.766 747.3 481.344 747.3C480.522 747.3 479.755 747.167 479.044 746.9C478.333 746.634 477.711 746.223 477.178 745.667C476.644 745.111 476.222 744.423 475.911 743.6C475.622 742.756 475.478 741.767 475.478 740.634V730.3H479.678V739.767C479.678 740.945 479.955 741.867 480.511 742.534C481.066 743.178 481.9 743.5 483.011 743.5C484.278 743.5 485.2 743.1 485.778 742.3C486.378 741.478 486.678 740.367 486.678 738.967V730.3Z" fill="white"/>
<path d="M454.601 730.3H459.501V723.5H463.701V730.3H469.667V734.3H463.701V741.833C463.701 742.5 464.001 742.833 464.601 742.833H469.067V746.833H462.067C461.312 746.833 460.689 746.589 460.201 746.1C459.734 745.611 459.501 744.989 459.501 744.233V734.3H454.601V730.3Z" fill="white"/>
<path d="M437.991 753.5H433.791V730.3H437.991V732.7H438.591C439.035 731.789 439.679 731.089 440.524 730.6C441.368 730.089 442.446 729.833 443.757 729.833C444.735 729.833 445.657 730.022 446.524 730.4C447.413 730.778 448.179 731.333 448.824 732.067C449.491 732.778 450.013 733.656 450.391 734.7C450.791 735.745 450.991 736.933 450.991 738.267V738.867C450.991 740.222 450.802 741.422 450.424 742.467C450.046 743.511 449.535 744.4 448.891 745.133C448.246 745.845 447.479 746.389 446.591 746.767C445.724 747.122 444.779 747.3 443.757 747.3C443.002 747.3 442.346 747.222 441.791 747.067C441.235 746.911 440.746 746.7 440.324 746.433C439.924 746.167 439.579 745.867 439.291 745.533C439.024 745.178 438.791 744.811 438.591 744.433H437.991V753.5ZM442.391 743.3C443.702 743.3 444.757 742.9 445.557 742.1C446.379 741.278 446.791 740.167 446.791 738.767V738.367C446.791 736.967 446.379 735.867 445.557 735.067C444.757 734.245 443.702 733.833 442.391 733.833C441.079 733.833 440.013 734.256 439.191 735.1C438.391 735.922 437.991 737.011 437.991 738.367V738.767C437.991 740.122 438.391 741.222 439.191 742.067C440.013 742.889 441.079 743.3 442.391 743.3Z" fill="white"/>
<path d="M424.947 744.433C424.503 745.478 423.88 746.222 423.08 746.667C422.28 747.089 421.347 747.3 420.28 747.3C419.28 747.3 418.336 747.111 417.447 746.734C416.58 746.356 415.814 745.8 415.147 745.067C414.48 744.333 413.947 743.445 413.547 742.4C413.169 741.356 412.98 740.167 412.98 738.833V738.3C412.98 736.989 413.169 735.811 413.547 734.767C413.925 733.722 414.436 732.833 415.08 732.1C415.725 731.367 416.469 730.811 417.314 730.433C418.18 730.033 419.103 729.833 420.08 729.833C421.258 729.833 422.203 730.033 422.914 730.433C423.647 730.833 424.225 731.456 424.647 732.3H425.247V730.3H429.447V741.833C429.447 742.5 429.747 742.833 430.347 742.833H430.98V746.833H428.114C427.358 746.833 426.736 746.611 426.247 746.167C425.78 745.722 425.547 745.145 425.547 744.433H424.947ZM421.214 743.3C422.436 743.3 423.414 742.9 424.147 742.1C424.88 741.278 425.247 740.167 425.247 738.767V738.367C425.247 736.967 424.88 735.867 424.147 735.067C423.414 734.245 422.436 733.833 421.214 733.833C419.992 733.833 419.014 734.245 418.28 735.067C417.547 735.867 417.18 736.967 417.18 738.367V738.767C417.18 740.167 417.547 741.278 418.28 742.1C419.014 742.9 419.992 743.3 421.214 743.3Z" fill="white"/>
<path d="M401.504 743.3C402.348 743.3 403.037 743.178 403.57 742.933C404.126 742.667 404.548 742.322 404.837 741.9C405.148 741.455 405.359 740.955 405.47 740.4C405.581 739.822 405.637 739.233 405.637 738.633V738.033H410.037V738.633C410.037 741.411 409.304 743.555 407.837 745.067C406.392 746.555 404.281 747.3 401.504 747.3C398.837 747.3 396.726 746.489 395.17 744.867C393.615 743.244 392.837 740.878 392.837 737.767V732.567C392.837 731.078 393.037 729.744 393.437 728.567C393.837 727.367 394.415 726.367 395.17 725.567C395.926 724.744 396.837 724.122 397.904 723.7C398.97 723.255 400.17 723.033 401.504 723.033C402.881 723.033 404.104 723.233 405.17 723.633C406.237 724.033 407.126 724.611 407.837 725.367C408.57 726.122 409.115 727.033 409.47 728.1C409.848 729.167 410.037 730.367 410.037 731.7V732.3H405.637V731.7C405.637 731.144 405.57 730.589 405.437 730.033C405.304 729.478 405.081 728.978 404.77 728.533C404.459 728.089 404.037 727.733 403.504 727.467C402.97 727.178 402.304 727.033 401.504 727.033C400.77 727.033 400.137 727.178 399.604 727.467C399.07 727.733 398.626 728.111 398.27 728.6C397.915 729.067 397.648 729.622 397.47 730.267C397.315 730.889 397.237 731.544 397.237 732.233V738.1C397.237 738.855 397.315 739.555 397.47 740.2C397.626 740.822 397.87 741.367 398.204 741.833C398.537 742.3 398.97 742.667 399.504 742.933C400.059 743.178 400.726 743.3 401.504 743.3Z" fill="white"/>
<path d="M364.883 744.433H364.283C364.106 744.811 363.883 745.178 363.617 745.533C363.372 745.867 363.039 746.167 362.617 746.433C362.217 746.7 361.728 746.911 361.15 747.067C360.594 747.222 359.917 747.3 359.117 747.3C358.094 747.3 357.139 747.122 356.25 746.767C355.383 746.389 354.617 745.844 353.95 745.133C353.306 744.4 352.794 743.511 352.417 742.467C352.061 741.422 351.883 740.222 351.883 738.867V738.267C351.883 736.933 352.072 735.744 352.45 734.7C352.85 733.656 353.383 732.778 354.05 732.067C354.739 731.333 355.528 730.778 356.417 730.4C357.328 730.022 358.283 729.833 359.283 729.833C360.617 729.833 361.672 730.089 362.45 730.6C363.228 731.089 363.839 731.789 364.283 732.7H364.883V723.5H369.083V746.833H364.883V744.433ZM360.483 743.3C361.794 743.3 362.85 742.889 363.65 742.067C364.472 741.222 364.883 740.122 364.883 738.767V738.367C364.883 737.011 364.472 735.922 363.65 735.1C362.85 734.256 361.794 733.833 360.483 733.833C359.172 733.833 358.106 734.244 357.283 735.067C356.483 735.867 356.083 736.967 356.083 738.367V738.767C356.083 740.167 356.483 741.278 357.283 742.1C358.106 742.9 359.172 743.3 360.483 743.3Z" fill="white"/>
<path d="M343.306 744.433C342.862 745.478 342.239 746.222 341.439 746.667C340.639 747.089 339.706 747.3 338.639 747.3C337.639 747.3 336.695 747.111 335.806 746.734C334.939 746.356 334.173 745.8 333.506 745.067C332.839 744.333 332.306 743.445 331.906 742.4C331.528 741.356 331.339 740.167 331.339 738.833V738.3C331.339 736.989 331.528 735.811 331.906 734.767C332.284 733.722 332.795 732.833 333.439 732.1C334.084 731.367 334.828 730.811 335.673 730.433C336.539 730.033 337.462 729.833 338.439 729.833C339.617 729.833 340.562 730.033 341.273 730.433C342.006 730.833 342.584 731.456 343.006 732.3H343.606V730.3H347.806V741.833C347.806 742.5 348.106 742.833 348.706 742.833H349.339V746.833H346.473C345.717 746.833 345.095 746.611 344.606 746.167C344.139 745.722 343.906 745.145 343.906 744.433H343.306ZM339.573 743.3C340.795 743.3 341.773 742.9 342.506 742.1C343.239 741.278 343.606 740.167 343.606 738.767V738.367C343.606 736.967 343.239 735.867 342.506 735.067C341.773 734.245 340.795 733.833 339.573 733.833C338.35 733.833 337.373 734.245 336.639 735.067C335.906 735.867 335.539 736.967 335.539 738.367V738.767C335.539 740.167 335.906 741.278 336.639 742.1C337.373 742.9 338.35 743.3 339.573 743.3Z" fill="white"/>
<path d="M315.896 739.933C315.919 740.422 316.03 740.878 316.23 741.3C316.452 741.7 316.741 742.056 317.096 742.367C317.474 742.656 317.896 742.889 318.363 743.067C318.852 743.222 319.363 743.3 319.896 743.3C320.941 743.3 321.741 743.122 322.296 742.767C322.852 742.389 323.252 741.945 323.496 741.433L327.096 743.433C326.896 743.856 326.619 744.3 326.263 744.767C325.907 745.211 325.441 745.622 324.863 746C324.307 746.378 323.619 746.689 322.796 746.933C321.996 747.178 321.052 747.3 319.963 747.3C318.719 747.3 317.585 747.1 316.563 746.7C315.541 746.3 314.652 745.722 313.896 744.967C313.163 744.211 312.585 743.289 312.163 742.2C311.763 741.111 311.563 739.878 311.563 738.5V738.3C311.563 737.033 311.774 735.878 312.196 734.833C312.641 733.789 313.241 732.9 313.996 732.167C314.752 731.433 315.63 730.867 316.63 730.467C317.652 730.045 318.741 729.833 319.896 729.833C321.319 729.833 322.541 730.089 323.563 730.6C324.585 731.089 325.43 731.722 326.096 732.5C326.763 733.256 327.252 734.1 327.563 735.033C327.874 735.945 328.03 736.833 328.03 737.7V739.933H315.896ZM319.863 733.633C318.796 733.633 317.93 733.911 317.263 734.467C316.596 735 316.163 735.622 315.963 736.333H323.763C323.63 735.556 323.207 734.911 322.496 734.4C321.807 733.889 320.93 733.633 319.863 733.633Z" fill="white"/>
<path d="M291.919 723.5H296.319V742.633H306.919V746.833H291.919V723.5Z" fill="white"/>
<path d="M256.499 736.367H257.299L261.699 730.3H266.299V730.5L260.965 738.067V738.667L266.832 746.633V746.833H262.032L257.299 740.367H256.499V746.833H252.299V723.5H256.499V736.367Z" fill="white"/>
<path d="M246.756 738.767C246.756 740.145 246.522 741.367 246.056 742.433C245.589 743.478 244.956 744.367 244.156 745.1C243.356 745.811 242.433 746.356 241.389 746.734C240.367 747.111 239.289 747.3 238.156 747.3C237.022 747.3 235.933 747.111 234.889 746.734C233.867 746.356 232.956 745.811 232.156 745.1C231.356 744.367 230.722 743.478 230.256 742.433C229.789 741.367 229.556 740.145 229.556 738.767V738.367C229.556 737.011 229.789 735.811 230.256 734.767C230.722 733.7 231.356 732.8 232.156 732.067C232.956 731.333 233.867 730.778 234.889 730.4C235.933 730.022 237.022 729.833 238.156 729.833C239.289 729.833 240.367 730.022 241.389 730.4C242.433 730.778 243.356 731.333 244.156 732.067C244.956 732.8 245.589 733.7 246.056 734.767C246.522 735.811 246.756 737.011 246.756 738.367V738.767ZM238.156 743.3C238.756 743.3 239.322 743.2 239.856 743C240.389 742.8 240.856 742.511 241.256 742.133C241.656 741.756 241.967 741.3 242.189 740.767C242.433 740.211 242.556 739.589 242.556 738.9V738.233C242.556 737.545 242.433 736.933 242.189 736.4C241.967 735.845 241.656 735.378 241.256 735C240.856 734.622 240.389 734.333 239.856 734.133C239.322 733.933 238.756 733.833 238.156 733.833C237.556 733.833 236.989 733.933 236.456 734.133C235.922 734.333 235.456 734.622 235.056 735C234.656 735.378 234.333 735.845 234.089 736.4C233.867 736.933 233.756 737.545 233.756 738.233V738.9C233.756 739.589 233.867 740.211 234.089 740.767C234.333 741.3 234.656 741.756 235.056 742.133C235.456 742.511 235.922 742.8 236.456 743C236.989 743.2 237.556 743.3 238.156 743.3Z" fill="white"/>
<path d="M226.346 738.767C226.346 740.145 226.112 741.367 225.646 742.433C225.179 743.478 224.546 744.367 223.746 745.1C222.946 745.811 222.023 746.356 220.979 746.734C219.957 747.111 218.879 747.3 217.746 747.3C216.612 747.3 215.523 747.111 214.479 746.734C213.457 746.356 212.546 745.811 211.746 745.1C210.946 744.367 210.312 743.478 209.846 742.433C209.379 741.367 209.146 740.145 209.146 738.767V738.367C209.146 737.011 209.379 735.811 209.846 734.767C210.312 733.7 210.946 732.8 211.746 732.067C212.546 731.333 213.457 730.778 214.479 730.4C215.523 730.022 216.612 729.833 217.746 729.833C218.879 729.833 219.957 730.022 220.979 730.4C222.023 730.778 222.946 731.333 223.746 732.067C224.546 732.8 225.179 733.7 225.646 734.767C226.112 735.811 226.346 737.011 226.346 738.367V738.767ZM217.746 743.3C218.346 743.3 218.912 743.2 219.446 743C219.979 742.8 220.446 742.511 220.846 742.133C221.246 741.756 221.557 741.3 221.779 740.767C222.023 740.211 222.146 739.589 222.146 738.9V738.233C222.146 737.545 222.023 736.933 221.779 736.4C221.557 735.845 221.246 735.378 220.846 735C220.446 734.622 219.979 734.333 219.446 734.133C218.912 733.933 218.346 733.833 217.746 733.833C217.146 733.833 216.579 733.933 216.046 734.133C215.512 734.333 215.046 734.622 214.646 735C214.246 735.378 213.923 735.845 213.679 736.4C213.457 736.933 213.346 737.545 213.346 738.233V738.9C213.346 739.589 213.457 740.211 213.679 740.767C213.923 741.3 214.246 741.756 214.646 742.133C215.046 742.511 215.512 742.8 216.046 743C216.579 743.2 217.146 743.3 217.746 743.3Z" fill="white"/>
<path d="M193.235 746.833H189.035V723.5H193.235V732.7H193.835C194.28 731.789 194.924 731.089 195.768 730.6C196.613 730.089 197.691 729.833 199.002 729.833C199.98 729.833 200.902 730.022 201.768 730.4C202.657 730.778 203.424 731.333 204.068 732.067C204.735 732.778 205.257 733.656 205.635 734.7C206.035 735.744 206.235 736.933 206.235 738.267V738.867C206.235 740.222 206.046 741.422 205.668 742.467C205.291 743.511 204.78 744.4 204.135 745.133C203.491 745.844 202.724 746.389 201.835 746.767C200.968 747.122 200.024 747.3 199.002 747.3C198.246 747.3 197.591 747.222 197.035 747.067C196.48 746.911 195.991 746.7 195.568 746.433C195.168 746.167 194.824 745.867 194.535 745.533C194.268 745.178 194.035 744.811 193.835 744.433H193.235V746.833ZM197.635 743.3C198.946 743.3 200.002 742.9 200.802 742.1C201.624 741.278 202.035 740.167 202.035 738.767V738.367C202.035 736.967 201.624 735.867 200.802 735.067C200.002 734.244 198.946 733.833 197.635 733.833C196.324 733.833 195.257 734.256 194.435 735.1C193.635 735.922 193.235 737.011 193.235 738.367V738.767C193.235 740.122 193.635 741.222 194.435 742.067C195.257 742.889 196.324 743.3 197.635 743.3Z" fill="white"/>
<path d="M169.458 723.5H184.192V727.7H173.858V733.033H183.792V737.233H173.858V742.633H184.592V746.833H169.458V723.5Z" fill="white"/>
<g filter="url(#filter1_d_32_1384)">
<path d="M75 888.833C75 877.327 84.3274 868 95.8333 868H804.167C815.673 868 825 877.327 825 888.833V1013.83C825 1025.34 815.673 1034.67 804.167 1034.67H95.8333C84.3274 1034.67 75 1025.34 75 1013.83V888.833Z" fill="black"/>
<path fill-rule="evenodd" clip-rule="evenodd" d="M804.167 872.167H95.8333C86.6286 872.167 79.1667 879.629 79.1667 888.833V1013.83C79.1667 1023.04 86.6286 1030.5 95.8333 1030.5H804.167C813.371 1030.5 820.833 1023.04 820.833 1013.83V888.833C820.833 879.629 813.371 872.167 804.167 872.167ZM95.8333 868C84.3274 868 75 877.327 75 888.833V1013.83C75 1025.34 84.3274 1034.67 95.8333 1034.67H804.167C815.673 1034.67 825 1025.34 825 1013.83V888.833C825 877.327 815.673 868 804.167 868H95.8333Z" fill="#292524"/>
<path d="M108.333 922.166C108.333 910.66 117.66 901.333 129.166 901.333H187.5C199.006 901.333 208.333 910.66 208.333 922.166V980.5C208.333 992.006 199.006 1001.33 187.5 1001.33H129.166C117.66 1001.33 108.333 992.006 108.333 980.5V922.166Z" fill="#1C1917"/>
<path d="M161.458 945.292H183.333L155.208 985.917V957.792H133.333L161.458 917.167V945.292Z" fill="#A3E635"/>
<path d="M692.774 947.3H699.774V949.7H700.374C700.685 948.789 701.207 948.089 701.94 947.6C702.696 947.089 703.596 946.833 704.64 946.833C706.285 946.833 707.607 947.356 708.607 948.4C709.607 949.422 710.107 950.989 710.107 953.1V953.833L705.774 954.233V953.767C705.774 952.856 705.54 952.133 705.074 951.6C704.607 951.045 703.907 950.767 702.974 950.767C702.04 950.767 701.307 951.089 700.774 951.733C700.24 952.378 699.974 953.3 699.974 954.5V959.833H703.774V963.833H692.374V959.833H695.774V951.3H692.774V947.3Z" fill="white"/>
<path d="M689.364 955.767C689.364 957.145 689.13 958.367 688.664 959.433C688.197 960.478 687.564 961.367 686.764 962.1C685.964 962.811 685.041 963.356 683.997 963.733C682.975 964.111 681.897 964.3 680.764 964.3C679.63 964.3 678.541 964.111 677.497 963.733C676.475 963.356 675.564 962.811 674.764 962.1C673.964 961.367 673.33 960.478 672.864 959.433C672.397 958.367 672.164 957.145 672.164 955.767V955.367C672.164 954.011 672.397 952.811 672.864 951.767C673.33 950.7 673.964 949.8 674.764 949.067C675.564 948.333 676.475 947.778 677.497 947.4C678.541 947.022 679.63 946.833 680.764 946.833C681.897 946.833 682.975 947.022 683.997 947.4C685.041 947.778 685.964 948.333 686.764 949.067C687.564 949.8 688.197 950.7 688.664 951.767C689.13 952.811 689.364 954.011 689.364 955.367V955.767ZM680.764 960.3C681.364 960.3 681.93 960.2 682.464 960C682.997 959.8 683.464 959.511 683.864 959.133C684.264 958.756 684.575 958.3 684.797 957.767C685.041 957.211 685.164 956.589 685.164 955.9V955.233C685.164 954.545 685.041 953.933 684.797 953.4C684.575 952.845 684.264 952.378 683.864 952C683.464 951.622 682.997 951.333 682.464 951.133C681.93 950.933 681.364 950.833 680.764 950.833C680.164 950.833 679.597 950.933 679.064 951.133C678.53 951.333 678.064 951.622 677.664 952C677.264 952.378 676.941 952.845 676.697 953.4C676.475 953.933 676.364 954.545 676.364 955.233V955.9C676.364 956.589 676.475 957.211 676.697 957.767C676.941 958.3 677.264 958.756 677.664 959.133C678.064 959.511 678.53 959.8 679.064 960C679.597 960.2 680.164 960.3 680.764 960.3Z" fill="white"/>
<path d="M652.287 947.3H657.187V940.5H661.387V947.3H667.353V951.3H661.387V958.833C661.387 959.5 661.687 959.833 662.287 959.833H666.753V963.833H659.753C658.998 963.833 658.376 963.589 657.887 963.1C657.42 962.611 657.187 961.989 657.187 961.233V951.3H652.287V947.3Z" fill="white"/>
<path d="M643.043 961.433C642.598 962.478 641.976 963.222 641.176 963.667C640.376 964.089 639.443 964.3 638.376 964.3C637.376 964.3 636.432 964.111 635.543 963.733C634.676 963.356 633.91 962.8 633.243 962.067C632.576 961.333 632.043 960.445 631.643 959.4C631.265 958.356 631.076 957.167 631.076 955.833V955.3C631.076 953.989 631.265 952.811 631.643 951.767C632.021 950.722 632.532 949.833 633.176 949.1C633.821 948.367 634.565 947.811 635.409 947.433C636.276 947.033 637.198 946.833 638.176 946.833C639.354 946.833 640.298 947.033 641.009 947.433C641.743 947.833 642.321 948.456 642.743 949.3H643.343V947.3H647.543V958.833C647.543 959.5 647.843 959.833 648.443 959.833H649.076V963.833H646.21C645.454 963.833 644.832 963.611 644.343 963.167C643.876 962.722 643.643 962.145 643.643 961.433H643.043ZM639.31 960.3C640.532 960.3 641.51 959.9 642.243 959.1C642.976 958.278 643.343 957.167 643.343 955.767V955.367C643.343 953.967 642.976 952.867 642.243 952.067C641.51 951.245 640.532 950.833 639.31 950.833C638.087 950.833 637.109 951.245 636.376 952.067C635.643 952.867 635.276 953.967 635.276 955.367V955.767C635.276 957.167 635.643 958.278 636.376 959.1C637.109 959.9 638.087 960.3 639.31 960.3Z" fill="white"/>
<path d="M611.833 959.833H617.633V944.5H612.033V940.5H621.833V959.833H627.233V963.833H611.833V959.833Z" fill="white"/>
<path d="M602.722 947.3H606.922V963.833H602.722V961.433H602.122C601.389 963.344 599.811 964.3 597.389 964.3C596.567 964.3 595.8 964.166 595.089 963.9C594.378 963.633 593.756 963.222 593.222 962.666C592.689 962.111 592.267 961.422 591.956 960.6C591.667 959.755 591.522 958.766 591.522 957.633V947.3H595.722V956.766C595.722 957.944 596 958.866 596.556 959.533C597.111 960.178 597.945 960.5 599.056 960.5C600.322 960.5 601.245 960.1 601.822 959.3C602.422 958.478 602.722 957.366 602.722 955.966V947.3Z" fill="white"/>
<path d="M587.246 957.767C586.868 959.722 585.968 961.3 584.546 962.5C583.146 963.7 581.268 964.3 578.912 964.3C577.69 964.3 576.546 964.111 575.479 963.733C574.434 963.356 573.523 962.811 572.746 962.1C571.968 961.389 571.357 960.511 570.912 959.467C570.468 958.422 570.246 957.233 570.246 955.9V955.5C570.246 954.167 570.468 952.967 570.912 951.9C571.357 950.833 571.968 949.922 572.746 949.167C573.546 948.411 574.468 947.833 575.512 947.433C576.579 947.033 577.712 946.833 578.912 946.833C581.223 946.833 583.09 947.433 584.512 948.633C585.957 949.833 586.868 951.411 587.246 953.367L583.112 954.433C582.979 953.456 582.557 952.611 581.846 951.9C581.135 951.189 580.135 950.833 578.846 950.833C578.246 950.833 577.679 950.945 577.146 951.167C576.612 951.389 576.146 951.711 575.746 952.133C575.346 952.533 575.023 953.033 574.779 953.633C574.557 954.211 574.446 954.867 574.446 955.6V955.8C574.446 956.533 574.557 957.189 574.779 957.767C575.023 958.322 575.346 958.789 575.746 959.167C576.146 959.545 576.612 959.833 577.146 960.033C577.679 960.211 578.246 960.3 578.846 960.3C580.135 960.3 581.112 959.978 581.779 959.333C582.468 958.689 582.912 957.822 583.112 956.733L587.246 957.767Z" fill="white"/>
<path d="M550.602 959.833H556.402V944.5H550.802V940.5H560.602V959.833H566.002V963.833H550.602V959.833Z" fill="white"/>
<path d="M540.992 961.433C540.547 962.478 539.925 963.222 539.125 963.667C538.325 964.089 537.392 964.3 536.325 964.3C535.325 964.3 534.38 964.111 533.492 963.733C532.625 963.356 531.858 962.8 531.192 962.067C530.525 961.333 529.992 960.445 529.592 959.4C529.214 958.356 529.025 957.167 529.025 955.833V955.3C529.025 953.989 529.214 952.811 529.592 951.767C529.969 950.722 530.48 949.833 531.125 949.1C531.769 948.367 532.514 947.811 533.358 947.433C534.225 947.033 535.147 946.833 536.125 946.833C537.303 946.833 538.247 947.033 538.958 947.433C539.692 947.833 540.269 948.456 540.692 949.3H541.292V947.3H545.492V958.833C545.492 959.5 545.792 959.833 546.392 959.833H547.025V963.833H544.158C543.403 963.833 542.78 963.611 542.292 963.167C541.825 962.722 541.592 962.145 541.592 961.433H540.992ZM537.258 960.3C538.48 960.3 539.458 959.9 540.192 959.1C540.925 958.278 541.292 957.167 541.292 955.767V955.367C541.292 953.967 540.925 952.867 540.192 952.067C539.458 951.245 538.48 950.833 537.258 950.833C536.036 950.833 535.058 951.245 534.325 952.067C533.592 952.867 533.225 953.967 533.225 955.367V955.767C533.225 957.167 533.592 958.278 534.325 959.1C535.058 959.9 536.036 960.3 537.258 960.3Z" fill="white"/>
<path d="M517.548 960.3C518.393 960.3 519.082 960.178 519.615 959.933C520.171 959.667 520.593 959.322 520.882 958.9C521.193 958.455 521.404 957.955 521.515 957.4C521.626 956.822 521.682 956.233 521.682 955.633V955.033H526.082V955.633C526.082 958.411 525.349 960.555 523.882 962.067C522.437 963.555 520.326 964.3 517.548 964.3C514.882 964.3 512.771 963.489 511.215 961.867C509.66 960.244 508.882 957.878 508.882 954.767V949.567C508.882 948.078 509.082 946.744 509.482 945.567C509.882 944.367 510.46 943.367 511.215 942.567C511.971 941.744 512.882 941.122 513.948 940.7C515.015 940.255 516.215 940.033 517.548 940.033C518.926 940.033 520.148 940.233 521.215 940.633C522.282 941.033 523.171 941.611 523.882 942.367C524.615 943.122 525.16 944.033 525.515 945.1C525.893 946.167 526.082 947.367 526.082 948.7V949.3H521.682V948.7C521.682 948.144 521.615 947.589 521.482 947.033C521.348 946.478 521.126 945.978 520.815 945.533C520.504 945.089 520.082 944.733 519.548 944.467C519.015 944.178 518.348 944.033 517.548 944.033C516.815 944.033 516.182 944.178 515.648 944.467C515.115 944.733 514.671 945.111 514.315 945.6C513.96 946.067 513.693 946.622 513.515 947.267C513.36 947.889 513.282 948.544 513.282 949.233V955.1C513.282 955.855 513.36 956.555 513.515 957.2C513.671 957.822 513.915 958.367 514.248 958.833C514.582 959.3 515.015 959.667 515.549 959.933C516.104 960.178 516.771 960.3 517.548 960.3Z" fill="white"/>
<path d="M472.762 956.933C472.784 957.422 472.895 957.878 473.095 958.3C473.317 958.7 473.606 959.056 473.962 959.367C474.339 959.656 474.762 959.889 475.228 960.067C475.717 960.222 476.228 960.3 476.762 960.3C477.806 960.3 478.606 960.122 479.162 959.767C479.717 959.389 480.117 958.945 480.362 958.433L483.962 960.433C483.762 960.856 483.484 961.3 483.128 961.767C482.773 962.211 482.306 962.622 481.728 963C481.173 963.378 480.484 963.689 479.662 963.933C478.862 964.178 477.917 964.3 476.828 964.3C475.584 964.3 474.45 964.1 473.428 963.7C472.406 963.3 471.517 962.722 470.762 961.967C470.028 961.211 469.45 960.289 469.028 959.2C468.628 958.111 468.428 956.878 468.428 955.5V955.3C468.428 954.033 468.639 952.878 469.062 951.833C469.506 950.789 470.106 949.9 470.862 949.167C471.617 948.433 472.495 947.867 473.495 947.467C474.517 947.045 475.606 946.833 476.762 946.833C478.184 946.833 479.406 947.089 480.428 947.6C481.45 948.089 482.295 948.722 482.962 949.5C483.628 950.256 484.117 951.1 484.428 952.033C484.739 952.945 484.895 953.833 484.895 954.7V956.933H472.762ZM476.728 950.633C475.662 950.633 474.795 950.911 474.128 951.467C473.462 952 473.028 952.622 472.828 953.333H480.628C480.495 952.556 480.073 951.911 479.362 951.4C478.673 950.889 477.795 950.633 476.728 950.633Z" fill="white"/>
<path d="M460.451 961.433H459.851C459.673 961.811 459.451 962.178 459.185 962.533C458.94 962.867 458.607 963.167 458.185 963.433C457.785 963.7 457.296 963.911 456.718 964.067C456.162 964.222 455.485 964.3 454.685 964.3C453.662 964.3 452.707 964.122 451.818 963.767C450.951 963.389 450.185 962.845 449.518 962.133C448.873 961.4 448.362 960.511 447.985 959.467C447.629 958.422 447.451 957.222 447.451 955.867V955.267C447.451 953.933 447.64 952.745 448.018 951.7C448.418 950.656 448.951 949.778 449.618 949.067C450.307 948.333 451.096 947.778 451.985 947.4C452.896 947.022 453.851 946.833 454.851 946.833C456.185 946.833 457.24 947.089 458.018 947.6C458.796 948.089 459.407 948.789 459.851 949.7H460.451V947.3H464.651V967.9C464.651 968.656 464.407 969.278 463.918 969.767C463.451 970.256 462.84 970.5 462.085 970.5H450.951V966.5H459.551C460.151 966.5 460.451 966.167 460.451 965.5V961.433ZM456.051 960.3C457.362 960.3 458.418 959.889 459.218 959.067C460.04 958.222 460.451 957.122 460.451 955.767V955.367C460.451 954.011 460.04 952.922 459.218 952.1C458.418 951.256 457.362 950.833 456.051 950.833C454.74 950.833 453.673 951.245 452.851 952.067C452.051 952.867 451.651 953.967 451.651 955.367V955.767C451.651 957.167 452.051 958.278 452.851 959.1C453.673 959.9 454.74 960.3 456.051 960.3Z" fill="white"/>
<path d="M438.941 961.433C438.497 962.478 437.875 963.222 437.075 963.667C436.275 964.089 435.341 964.3 434.275 964.3C433.275 964.3 432.33 964.111 431.441 963.733C430.575 963.356 429.808 962.8 429.141 962.067C428.475 961.333 427.941 960.445 427.541 959.4C427.163 958.356 426.975 957.167 426.975 955.833V955.3C426.975 953.989 427.163 952.811 427.541 951.767C427.919 950.722 428.43 949.833 429.075 949.1C429.719 948.367 430.463 947.811 431.308 947.433C432.175 947.033 433.097 946.833 434.075 946.833C435.252 946.833 436.197 947.033 436.908 947.433C437.641 947.833 438.219 948.456 438.641 949.3H439.241V947.3H443.441V958.833C443.441 959.5 443.741 959.833 444.341 959.833H444.975V963.833H442.108C441.352 963.833 440.73 963.611 440.241 963.167C439.775 962.722 439.541 962.145 439.541 961.433H438.941ZM435.208 960.3C436.43 960.3 437.408 959.9 438.141 959.1C438.875 958.278 439.241 957.167 439.241 955.767V955.367C439.241 953.967 438.875 952.867 438.141 952.067C437.408 951.245 436.43 950.833 435.208 950.833C433.986 950.833 433.008 951.245 432.275 952.067C431.541 952.867 431.175 953.967 431.175 955.367V955.767C431.175 957.167 431.541 958.278 432.275 959.1C433.008 959.9 433.986 960.3 435.208 960.3Z" fill="white"/>
<path d="M412.031 955.033V963.833H407.631V940.5H416.764C417.964 940.5 419.009 940.7 419.898 941.1C420.786 941.478 421.52 941.989 422.098 942.633C422.698 943.256 423.142 943.978 423.431 944.8C423.742 945.6 423.898 946.422 423.898 947.267V948.067C423.898 948.933 423.742 949.789 423.431 950.633C423.142 951.456 422.698 952.2 422.098 952.867C421.52 953.511 420.786 954.033 419.898 954.433C419.009 954.833 417.964 955.033 416.764 955.033H412.031ZM412.031 950.833H416.331C417.309 950.833 418.075 950.567 418.631 950.033C419.209 949.5 419.498 948.811 419.498 947.967V947.567C419.498 946.722 419.209 946.033 418.631 945.5C418.075 944.967 417.309 944.7 416.331 944.7H412.031V950.833Z" fill="white"/>
<path d="M378.811 961.433H378.211C378.033 961.811 377.811 962.178 377.544 962.533C377.299 962.867 376.966 963.167 376.544 963.433C376.144 963.7 375.655 963.911 375.077 964.067C374.522 964.222 373.844 964.3 373.044 964.3C372.022 964.3 371.066 964.122 370.177 963.767C369.311 963.389 368.544 962.845 367.877 962.133C367.233 961.4 366.722 960.511 366.344 959.467C365.988 958.422 365.811 957.222 365.811 955.867V955.267C365.811 953.933 365.999 952.745 366.377 951.7C366.777 950.656 367.311 949.778 367.977 949.067C368.666 948.333 369.455 947.778 370.344 947.4C371.255 947.022 372.211 946.833 373.211 946.833C374.544 946.833 375.599 947.089 376.377 947.6C377.155 948.089 377.766 948.789 378.211 949.7H378.811V947.3H383.011V967.9C383.011 968.656 382.766 969.278 382.277 969.767C381.811 970.256 381.199 970.5 380.444 970.5H369.311V966.5H377.911C378.511 966.5 378.811 966.167 378.811 965.5V961.433ZM374.411 960.3C375.722 960.3 376.777 959.889 377.577 959.067C378.399 958.222 378.811 957.122 378.811 955.767V955.367C378.811 954.011 378.399 952.922 377.577 952.1C376.777 951.256 375.722 950.833 374.411 950.833C373.099 950.833 372.033 951.245 371.211 952.067C370.411 952.867 370.011 953.967 370.011 955.367V955.767C370.011 957.167 370.411 958.278 371.211 959.1C372.033 959.9 373.099 960.3 374.411 960.3Z" fill="white"/>
<path d="M350.801 963.833H346.601V947.3H350.801V949.767H351.401C351.778 948.833 352.389 948.111 353.234 947.6C354.078 947.089 355.067 946.833 356.201 946.833C357.001 946.833 357.745 946.967 358.434 947.233C359.145 947.478 359.767 947.867 360.301 948.4C360.834 948.933 361.245 949.611 361.534 950.433C361.845 951.256 362.001 952.233 362.001 953.367V963.833H357.801V954.433C357.801 953.256 357.512 952.333 356.934 951.667C356.378 950.978 355.567 950.633 354.501 950.633C353.256 950.633 352.323 951.056 351.701 951.9C351.101 952.722 350.801 953.833 350.801 955.233V963.833Z" fill="white"/>
<path d="M326.49 959.833H332.09V951.3H326.89V947.3H336.29V959.833H341.09V963.833H326.49V959.833ZM337.324 942.4C337.324 942.845 337.235 943.267 337.057 943.667C336.901 944.045 336.679 944.378 336.39 944.667C336.101 944.933 335.757 945.156 335.357 945.333C334.979 945.489 334.579 945.567 334.157 945.567C333.712 945.567 333.301 945.489 332.924 945.333C332.546 945.156 332.212 944.933 331.924 944.667C331.635 944.378 331.401 944.045 331.224 943.667C331.068 943.267 330.99 942.845 330.99 942.4C330.99 941.956 331.068 941.545 331.224 941.167C331.401 940.767 331.635 940.433 331.924 940.167C332.212 939.878 332.546 939.656 332.924 939.5C333.301 939.322 333.712 939.233 334.157 939.233C334.579 939.233 334.979 939.322 335.357 939.5C335.757 939.656 336.101 939.878 336.39 940.167C336.679 940.433 336.901 940.767 337.057 941.167C337.235 941.545 337.324 941.956 337.324 942.4Z" fill="white"/>
<path d="M321.914 957.767C321.536 959.722 320.636 961.3 319.214 962.5C317.814 963.7 315.936 964.3 313.581 964.3C312.359 964.3 311.214 964.111 310.147 963.733C309.103 963.356 308.192 962.811 307.414 962.1C306.636 961.389 306.025 960.511 305.581 959.467C305.136 958.422 304.914 957.233 304.914 955.9V955.5C304.914 954.167 305.136 952.967 305.581 951.9C306.025 950.833 306.636 949.922 307.414 949.167C308.214 948.411 309.136 947.833 310.181 947.433C311.247 947.033 312.381 946.833 313.581 946.833C315.892 946.833 317.759 947.433 319.181 948.633C320.625 949.833 321.536 951.411 321.914 953.367L317.781 954.433C317.647 953.456 317.225 952.611 316.514 951.9C315.803 951.189 314.803 950.833 313.514 950.833C312.914 950.833 312.347 950.945 311.814 951.167C311.281 951.389 310.814 951.711 310.414 952.133C310.014 952.533 309.692 953.033 309.447 953.633C309.225 954.211 309.114 954.867 309.114 955.6V955.8C309.114 956.533 309.225 957.189 309.447 957.767C309.692 958.322 310.014 958.789 310.414 959.167C310.814 959.545 311.281 959.833 311.814 960.033C312.347 960.211 312.914 960.3 313.514 960.3C314.803 960.3 315.781 959.978 316.447 959.333C317.136 958.689 317.581 957.822 317.781 956.733L321.914 957.767Z" fill="white"/>
<path d="M285.67 959.833H291.27V951.3H286.07V947.3H295.47V959.833H300.27V963.833H285.67V959.833ZM296.503 942.4C296.503 942.845 296.414 943.267 296.237 943.667C296.081 944.045 295.859 944.378 295.57 944.667C295.281 944.933 294.937 945.156 294.537 945.333C294.159 945.489 293.759 945.567 293.337 945.567C292.892 945.567 292.481 945.489 292.103 945.333C291.725 945.156 291.392 944.933 291.103 944.667C290.814 944.378 290.581 944.045 290.403 943.667C290.248 943.267 290.17 942.845 290.17 942.4C290.17 941.956 290.248 941.545 290.403 941.167C290.581 940.767 290.814 940.433 291.103 940.167C291.392 939.878 291.725 939.656 292.103 939.5C292.481 939.322 292.892 939.233 293.337 939.233C293.759 939.233 294.159 939.322 294.537 939.5C294.937 939.656 295.281 939.878 295.57 940.167C295.859 940.433 296.081 940.767 296.237 941.167C296.414 941.545 296.503 941.956 296.503 942.4Z" fill="white"/>
<path d="M264.16 947.3H271.16V949.7H271.76C272.071 948.789 272.593 948.089 273.326 947.6C274.082 947.089 274.982 946.833 276.026 946.833C277.671 946.833 278.993 947.356 279.993 948.4C280.993 949.422 281.493 950.989 281.493 953.1V953.833L277.16 954.233V953.767C277.16 952.856 276.926 952.133 276.46 951.6C275.993 951.045 275.293 950.767 274.36 950.767C273.426 950.767 272.693 951.089 272.16 951.733C271.626 952.378 271.36 953.3 271.36 954.5V959.833H275.16V963.833H263.76V959.833H267.16V951.3H264.16V947.3Z" fill="white"/>
<path d="M248.75 955.033V963.833H244.35V940.5H253.483C254.683 940.5 255.728 940.7 256.617 941.1C257.506 941.478 258.239 941.989 258.817 942.633C259.417 943.256 259.861 943.978 260.15 944.8C260.461 945.6 260.617 946.422 260.617 947.267V948.067C260.617 948.933 260.461 949.789 260.15 950.633C259.861 951.456 259.417 952.2 258.817 952.867C258.239 953.511 257.506 954.033 256.617 954.433C255.728 954.833 254.683 955.033 253.483 955.033H248.75ZM248.75 950.833H253.05C254.028 950.833 254.795 950.567 255.35 950.033C255.928 949.5 256.217 948.811 256.217 947.967V947.567C256.217 946.722 255.928 946.033 255.35 945.5C254.795 944.967 254.028 944.7 253.05 944.7H248.75V950.833Z" fill="white"/>
</g>
<defs>
<filter id="filter0_d_32_1384" x="71" y="0" width="758" height="174.667" filterUnits="userSpaceOnUse" color-interpolation-filters="sRGB">
<feFlood flood-opacity="0" result="BackgroundImageFix"/>
<feColorMatrix in="SourceAlpha" type="matrix" values="0 0 0 0 0 0 0 0 0 0 0 0 0 0 0 0 0 0 127 0" result="hardAlpha"/>
<feOffset dy="4"/>
<feGaussianBlur stdDeviation="2"/>
<feComposite in2="hardAlpha" operator="out"/>
<feColorMatrix type="matrix" values="0 0 0 0 0 0 0 0 0 0 0 0 0 0 0 0 0 0 0.25 0"/>
<feBlend mode="normal" in2="BackgroundImageFix" result="effect1_dropShadow_32_1384"/>
<feBlend mode="normal" in="SourceGraphic" in2="effect1_dropShadow_32_1384" result="shape"/>
</filter>
<filter id="filter1_d_32_1384" x="71" y="868" width="758" height="174.667" filterUnits="userSpaceOnUse" color-interpolation-filters="sRGB">
<feFlood flood-opacity="0" result="BackgroundImageFix"/>
<feColorMatrix in="SourceAlpha" type="matrix" values="0 0 0 0 0 0 0 0 0 0 0 0 0 0 0 0 0 0 127 0" result="hardAlpha"/>
<feOffset dy="4"/>
<feGaussianBlur stdDeviation="2"/>
<feComposite in2="hardAlpha" operator="out"/>
<feColorMatrix type="matrix" values="0 0 0 0 0 0 0 0 0 0 0 0 0 0 0 0 0 0 0.25 0"/>
<feBlend mode="normal" in2="BackgroundImageFix" result="effect1_dropShadow_32_1384"/>
<feBlend mode="normal" in="SourceGraphic" in2="effect1_dropShadow_32_1384" result="shape"/>
</filter>
</defs>
</svg>

