<svg width="613" height="70" viewBox="0 0 613 70" fill="none" xmlns="http://www.w3.org/2000/svg">
<path d="M100 20H0V10C0 7.34784 1.05357 4.8043 2.92893 2.92893C4.8043 1.05357 7.34784 0 10 0H90C92.6522 0 95.1957 1.05357 97.0711 2.92893C98.9464 4.8043 100 7.34784 100 10V20ZM100 35V60C100 62.6522 98.9464 65.1957 97.0711 67.0711C95.1957 68.9464 92.6522 70 90 70H10C7.34784 70 4.8043 68.9464 2.92893 67.0711C1.05357 65.1957 0 62.6522 0 60V35H100ZM20 45C18.6739 45 17.4021 45.5268 16.4645 46.4645C15.5268 47.4021 15 48.6739 15 50C15 51.3261 15.5268 52.5979 16.4645 53.5355C17.4021 54.4732 18.6739 55 20 55H25C26.3261 55 27.5979 54.4732 28.5355 53.5355C29.4732 52.5979 30 51.3261 30 50C30 48.6739 29.4732 47.4021 28.5355 46.4645C27.5979 45.5268 26.3261 45 25 45H20ZM45 45C43.6739 45 42.4021 45.5268 41.4645 46.4645C40.5268 47.4021 40 48.6739 40 50C40 51.3261 40.5268 52.5979 41.4645 53.5355C42.4021 54.4732 43.6739 55 45 55H70C71.3261 55 72.5978 54.4732 73.5355 53.5355C74.4732 52.5979 75 51.3261 75 50C75 48.6739 74.4732 47.4021 73.5355 46.4645C72.5978 45.5268 71.3261 45 70 45H45Z" fill="#22C55E"/>
<path d="M153.86 15.8C157.54 15.8 160.78 16.38 163.58 17.54C166.42 18.66 168.88 20.32 170.96 22.52L165.98 29.18C164.26 27.38 162.4 26.04 160.4 25.16C158.44 24.24 156.2 23.78 153.68 23.78C152.2 23.78 151 23.94 150.08 24.26C149.16 24.58 148.5 25.02 148.1 25.58C147.7 26.14 147.5 26.78 147.5 27.5C147.5 28.34 147.88 29.06 148.64 29.66C149.44 30.22 150.72 30.7 152.48 31.1L159.14 32.6C163.1 33.52 166 34.86 167.84 36.62C169.68 38.38 170.6 40.72 170.6 43.64C170.6 46.44 169.88 48.82 168.44 50.78C167 52.7 165.02 54.16 162.5 55.16C159.98 56.12 157.1 56.6 153.86 56.6C151.22 56.6 148.7 56.32 146.3 55.76C143.9 55.16 141.74 54.32 139.82 53.24C137.9 52.16 136.28 50.92 134.96 49.52L139.94 42.62C140.94 43.78 142.16 44.82 143.6 45.74C145.08 46.62 146.68 47.32 148.4 47.84C150.16 48.36 151.94 48.62 153.74 48.62C155.14 48.62 156.3 48.48 157.22 48.2C158.18 47.92 158.88 47.5 159.32 46.94C159.76 46.38 159.98 45.72 159.98 44.96C159.98 44.12 159.68 43.42 159.08 42.86C158.48 42.26 157.34 41.76 155.66 41.36L148.34 39.74C146.1 39.22 144.1 38.54 142.34 37.7C140.62 36.82 139.26 35.66 138.26 34.22C137.26 32.74 136.76 30.9 136.76 28.7C136.76 26.22 137.44 24.02 138.8 22.1C140.16 20.14 142.12 18.6 144.68 17.48C147.24 16.36 150.3 15.8 153.86 15.8Z" fill="black"/>
<path d="M192.837 36.98C192.837 35.58 192.437 34.48 191.637 33.68C190.877 32.84 189.838 32.42 188.518 32.42C187.198 32.42 186.058 32.76 185.098 33.44C184.178 34.08 183.538 35.24 183.178 36.92L174.538 34.88C175.098 32 176.577 29.7 178.977 27.98C181.377 26.26 184.758 25.4 189.118 25.4C192.038 25.4 194.517 25.84 196.557 26.72C198.637 27.56 200.218 28.84 201.298 30.56C202.417 32.24 202.977 34.32 202.977 36.8V47.78C202.977 49.34 203.677 50.12 205.077 50.12C205.797 50.12 206.378 50.04 206.818 49.88L206.217 55.7C205.017 56.26 203.557 56.54 201.837 56.54C200.277 56.54 198.897 56.3 197.697 55.82C196.497 55.3 195.558 54.54 194.878 53.54C194.198 52.5 193.857 51.2 193.857 49.64V49.28L194.997 48.86C194.997 50.58 194.477 52.02 193.438 53.18C192.437 54.34 191.117 55.2 189.477 55.76C187.877 56.32 186.198 56.6 184.438 56.6C182.398 56.6 180.618 56.28 179.098 55.64C177.578 55 176.397 54.08 175.557 52.88C174.757 51.64 174.357 50.12 174.357 48.32C174.357 46.16 174.997 44.38 176.277 42.98C177.597 41.54 179.658 40.54 182.458 39.98L193.798 37.64L193.738 43.04L187.977 44.24C186.777 44.48 185.877 44.84 185.277 45.32C184.717 45.76 184.438 46.44 184.438 47.36C184.438 48.24 184.758 48.9 185.398 49.34C186.038 49.78 186.798 50 187.678 50C188.358 50 188.998 49.9 189.598 49.7C190.238 49.5 190.797 49.2 191.277 48.8C191.757 48.36 192.137 47.82 192.417 47.18C192.697 46.54 192.837 45.78 192.837 44.9V36.98Z" fill="black"/>
<path d="M228.638 36.98C228.638 35.58 228.238 34.48 227.438 33.68C226.678 32.84 225.638 32.42 224.318 32.42C222.998 32.42 221.858 32.76 220.898 33.44C219.978 34.08 219.338 35.24 218.978 36.92L210.338 34.88C210.898 32 212.378 29.7 214.778 27.98C217.178 26.26 220.558 25.4 224.918 25.4C227.838 25.4 230.318 25.84 232.358 26.72C234.438 27.56 236.018 28.84 237.098 30.56C238.218 32.24 238.778 34.32 238.778 36.8V47.78C238.778 49.34 239.478 50.12 240.878 50.12C241.598 50.12 242.178 50.04 242.618 49.88L242.018 55.7C240.818 56.26 239.358 56.54 237.638 56.54C236.078 56.54 234.698 56.3 233.498 55.82C232.298 55.3 231.358 54.54 230.678 53.54C229.998 52.5 229.658 51.2 229.658 49.64V49.28L230.798 48.86C230.798 50.58 230.278 52.02 229.238 53.18C228.238 54.34 226.918 55.2 225.278 55.76C223.678 56.32 221.998 56.6 220.238 56.6C218.198 56.6 216.418 56.28 214.898 55.64C213.378 55 212.198 54.08 211.358 52.88C210.558 51.64 210.158 50.12 210.158 48.32C210.158 46.16 210.798 44.38 212.078 42.98C213.398 41.54 215.458 40.54 218.258 39.98L229.598 37.64L229.538 43.04L223.778 44.24C222.578 44.48 221.678 44.84 221.078 45.32C220.518 45.76 220.238 46.44 220.238 47.36C220.238 48.24 220.558 48.9 221.198 49.34C221.838 49.78 222.598 50 223.478 50C224.158 50 224.798 49.9 225.398 49.7C226.038 49.5 226.598 49.2 227.078 48.8C227.558 48.36 227.938 47.82 228.218 47.18C228.498 46.54 228.638 45.78 228.638 44.9V36.98Z" fill="black"/>
<path d="M259.244 56.6C256.244 56.6 253.444 56.12 250.844 55.16C248.284 54.16 246.164 52.74 244.484 50.9L249.284 45.26C250.284 46.54 251.604 47.62 253.244 48.5C254.924 49.34 256.784 49.76 258.824 49.76C260.064 49.76 261.084 49.58 261.884 49.22C262.684 48.86 263.084 48.3 263.084 47.54C263.084 46.98 262.884 46.54 262.484 46.22C262.084 45.86 261.284 45.56 260.084 45.32L255.884 44.48C252.124 43.72 249.444 42.6 247.844 41.12C246.284 39.6 245.504 37.62 245.504 35.18C245.504 33.54 246.004 31.98 247.004 30.5C248.004 28.98 249.544 27.76 251.624 26.84C253.704 25.88 256.364 25.4 259.604 25.4C262.644 25.4 265.324 25.84 267.644 26.72C269.964 27.6 271.804 28.88 273.164 30.56L268.304 36.08C267.344 34.88 266.104 33.94 264.584 33.26C263.064 32.58 261.544 32.24 260.024 32.24C259.064 32.24 258.244 32.34 257.564 32.54C256.924 32.7 256.444 32.94 256.124 33.26C255.804 33.58 255.644 33.98 255.644 34.46C255.644 34.98 255.884 35.44 256.364 35.84C256.884 36.2 257.824 36.52 259.184 36.8L264.644 37.88C267.724 38.44 269.944 39.46 271.304 40.94C272.664 42.42 273.344 44.2 273.344 46.28C273.344 48.24 272.824 50 271.784 51.56C270.744 53.12 269.184 54.36 267.104 55.28C265.024 56.16 262.404 56.6 259.244 56.6Z" fill="black"/>
<path d="M296.525 56V16.4H315.785C320.665 16.44 324.265 17.38 326.585 19.22C328.905 21.02 330.065 23.64 330.065 27.08C330.065 29.32 329.405 31.26 328.085 32.9C326.765 34.5 324.745 35.52 322.025 35.96V36.02C325.065 36.42 327.325 37.48 328.805 39.2C330.325 40.88 331.085 42.92 331.085 45.32C331.085 48.72 329.885 51.36 327.485 53.24C325.085 55.08 321.485 56 316.685 56H296.525ZM306.485 48.74H314.945C316.825 48.74 318.225 48.36 319.145 47.6C320.065 46.84 320.525 45.74 320.525 44.3C320.525 42.9 320.065 41.84 319.145 41.12C318.225 40.36 316.825 39.98 314.945 39.98H306.485V48.74ZM306.485 32.6H313.985C317.665 32.6 319.505 31.16 319.505 28.28C319.505 25.4 317.665 23.96 313.985 23.96H306.485V32.6Z" fill="black"/>
<path d="M341.92 22.52C339.84 22.52 338.32 22.14 337.36 21.38C336.44 20.58 335.98 19.34 335.98 17.66C335.98 15.94 336.44 14.7 337.36 13.94C338.32 13.14 339.84 12.74 341.92 12.74C343.96 12.74 345.46 13.14 346.42 13.94C347.38 14.7 347.86 15.94 347.86 17.66C347.86 19.34 347.38 20.58 346.42 21.38C345.46 22.14 343.96 22.52 341.92 22.52ZM347.02 26V56H336.82V26H347.02Z" fill="black"/>
<path d="M364.361 13.28V45.8C364.361 47.12 364.581 48.06 365.021 48.62C365.461 49.18 366.201 49.46 367.241 49.46C367.841 49.46 368.341 49.42 368.741 49.34C369.141 49.26 369.621 49.14 370.181 48.98L369.521 55.1C368.801 55.54 367.861 55.9 366.701 56.18C365.541 56.46 364.401 56.6 363.281 56.6C360.081 56.6 357.761 55.86 356.321 54.38C354.881 52.9 354.161 50.48 354.161 47.12V13.28H364.361Z" fill="black"/>
<path d="M383.99 13.28V45.8C383.99 47.12 384.21 48.06 384.65 48.62C385.09 49.18 385.83 49.46 386.87 49.46C387.47 49.46 387.97 49.42 388.37 49.34C388.77 49.26 389.25 49.14 389.81 48.98L389.15 55.1C388.43 55.54 387.49 55.9 386.33 56.18C385.17 56.46 384.03 56.6 382.91 56.6C379.71 56.6 377.39 55.86 375.95 54.38C374.51 52.9 373.79 50.48 373.79 47.12V13.28H383.99Z" fill="black"/>
<path d="M398.639 22.52C396.559 22.52 395.039 22.14 394.079 21.38C393.159 20.58 392.699 19.34 392.699 17.66C392.699 15.94 393.159 14.7 394.079 13.94C395.039 13.14 396.559 12.74 398.639 12.74C400.679 12.74 402.179 13.14 403.139 13.94C404.099 14.7 404.579 15.94 404.579 17.66C404.579 19.34 404.099 20.58 403.139 21.38C402.179 22.14 400.679 22.52 398.639 22.52ZM403.739 26V56H393.539V26H403.739Z" fill="black"/>
<path d="M411 56V26H420.12L420.66 36.32L419.52 35.18C419.92 33.02 420.62 31.22 421.62 29.78C422.66 28.34 423.94 27.26 425.46 26.54C427.02 25.78 428.76 25.4 430.68 25.4C432.76 25.4 434.56 25.8 436.08 26.6C437.64 27.4 438.86 28.58 439.74 30.14C440.62 31.7 441.06 33.66 441.06 36.02V56H430.86V38.72C430.86 36.64 430.46 35.2 429.66 34.4C428.86 33.6 427.84 33.2 426.6 33.2C425.64 33.2 424.74 33.44 423.9 33.92C423.06 34.36 422.4 35.08 421.92 36.08C421.44 37.08 421.2 38.42 421.2 40.1V56H411Z" fill="black"/>
<path d="M477.247 17.96L478.087 24.8C477.847 24.72 477.607 24.68 477.367 24.68C477.127 24.64 476.887 24.62 476.647 24.62C474.887 24.62 473.567 25.06 472.687 25.94C471.847 26.78 471.427 27.84 471.427 29.12L467.827 27.8C467.827 26.16 468.127 24.58 468.727 23.06C469.327 21.54 470.247 20.3 471.487 19.34C472.767 18.38 474.367 17.9 476.287 17.9C476.407 17.9 476.547 17.9 476.707 17.9C476.907 17.9 477.087 17.92 477.247 17.96ZM466.927 49.34C470.407 49.34 473.067 50.08 474.907 51.56C476.787 53 477.727 55.08 477.727 57.8C477.727 60.28 477.047 62.34 475.687 63.98C474.327 65.62 472.407 66.84 469.927 67.64C467.487 68.48 464.587 68.9 461.227 68.9C455.787 68.9 451.867 68.22 449.467 66.86C447.067 65.5 445.867 63.66 445.867 61.34C445.867 59.66 446.547 58.3 447.907 57.26C449.267 56.22 451.527 55.66 454.687 55.58L454.447 56.54C452.007 56.22 450.187 55.5 448.987 54.38C447.787 53.26 447.187 51.74 447.187 49.82C447.187 47.9 447.947 46.34 449.467 45.14C450.987 43.94 453.007 43.28 455.527 43.16L459.247 44.9H458.287C456.727 44.98 455.627 45.24 454.987 45.68C454.347 46.12 454.027 46.66 454.027 47.3C454.027 47.98 454.307 48.5 454.867 48.86C455.427 49.18 456.267 49.34 457.387 49.34H466.927ZM461.287 62.3C463.207 62.3 464.787 62.16 466.027 61.88C467.307 61.64 468.267 61.28 468.907 60.8C469.547 60.36 469.867 59.84 469.867 59.24C469.867 58.64 469.647 58.16 469.207 57.8C468.767 57.48 467.967 57.32 466.807 57.32H456.067C455.307 57.32 454.687 57.52 454.207 57.92C453.767 58.32 453.547 58.82 453.547 59.42C453.547 60.34 454.227 61.04 455.587 61.52C456.947 62.04 458.847 62.3 461.287 62.3ZM461.647 25.4C464.687 25.4 467.287 25.8 469.447 26.6C471.607 27.4 473.247 28.56 474.367 30.08C475.527 31.56 476.107 33.4 476.107 35.6C476.107 37.76 475.527 39.6 474.367 41.12C473.247 42.64 471.607 43.8 469.447 44.6C467.287 45.36 464.687 45.74 461.647 45.74C456.887 45.74 453.267 44.86 450.787 43.1C448.347 41.34 447.127 38.84 447.127 35.6C447.127 33.4 447.687 31.56 448.807 30.08C449.967 28.56 451.627 27.4 453.787 26.6C455.947 25.8 458.567 25.4 461.647 25.4ZM461.647 31.22C460.327 31.22 459.247 31.6 458.407 32.36C457.607 33.12 457.207 34.2 457.207 35.6C457.207 36.96 457.607 38.02 458.407 38.78C459.247 39.54 460.327 39.92 461.647 39.92C462.927 39.92 463.987 39.54 464.827 38.78C465.667 38.02 466.087 36.96 466.087 35.6C466.087 34.2 465.667 33.12 464.827 32.36C463.987 31.6 462.927 31.22 461.647 31.22Z" fill="black"/>
<path d="M535.429 16.4V56H525.109V16.4H535.429ZM509.989 16.4V56H499.669V16.4H509.989ZM530.629 32.06V40.04H504.709V32.06H530.629Z" fill="black"/>
<path d="M553.445 56.6C551.405 56.6 549.605 56.26 548.045 55.58C546.525 54.86 545.325 53.72 544.445 52.16C543.565 50.6 543.125 48.56 543.125 46.04V26H553.325V43.64C553.325 45.56 553.705 46.9 554.465 47.66C555.225 48.42 556.305 48.8 557.705 48.8C558.425 48.8 559.105 48.68 559.745 48.44C560.385 48.16 560.945 47.76 561.425 47.24C561.905 46.68 562.265 45.98 562.505 45.14C562.785 44.26 562.925 43.24 562.925 42.08V26H573.125V56H564.005L563.705 50.36C562.745 52.48 561.405 54.06 559.685 55.1C557.965 56.1 555.885 56.6 553.445 56.6Z" fill="black"/>
<path d="M599.713 56.6C597.753 56.6 596.013 56.16 594.493 55.28C593.013 54.4 591.793 53.2 590.833 51.68C589.873 50.12 589.253 48.36 588.973 46.4L589.933 45.14L589.393 56H580.453V13.28H590.653V35.42L589.693 33.98C590.253 31.5 591.393 29.46 593.113 27.86C594.833 26.22 597.153 25.4 600.073 25.4C602.393 25.4 604.453 26.02 606.253 27.26C608.093 28.5 609.513 30.3 610.513 32.66C611.553 34.98 612.073 37.8 612.073 41.12C612.073 44.36 611.553 47.14 610.513 49.46C609.473 51.78 608.033 53.56 606.193 54.8C604.353 56 602.193 56.6 599.713 56.6ZM596.173 49.1C597.933 49.1 599.313 48.46 600.313 47.18C601.313 45.86 601.813 43.8 601.813 41C601.813 38.2 601.313 36.16 600.313 34.88C599.313 33.56 597.933 32.9 596.173 32.9C595.013 32.9 594.013 33.24 593.173 33.92C592.373 34.56 591.753 35.48 591.313 36.68C590.873 37.88 590.653 39.34 590.653 41.06C590.653 42.78 590.873 44.24 591.313 45.44C591.753 46.64 592.393 47.56 593.233 48.2C594.073 48.8 595.053 49.1 596.173 49.1Z" fill="black"/>
</svg>
