<svg viewBox="0 0 89 49" fill="none" xmlns="http://www.w3.org/2000/svg">
						<g clip-path="url(#clip0_2835_1506)">
						<path d="M32.3389 27.9596V13.2612H38.2046V26.1929C38.2046 29.1369 40.0546 31.0852 42.8961 31.0852C45.9185 31.0852 47.9937 29.0923 47.9937 26.1021V13.2612H53.8594V38.5368C53.8594 44.8326 49.3932 49.0001 43.077 49.0001C37.6636 49.0001 33.694 45.9653 32.4754 41.0267H38.5203C39.2422 42.7489 41.0461 43.7907 43.1213 43.7907C45.9185 43.7907 47.9937 41.8423 47.9937 38.8076V33.7122C46.2342 35.7051 43.8432 36.747 41.0017 36.747C35.8136 36.747 32.3406 33.2598 32.3406 27.9596H32.3389Z" fill="#FF3500"></path>
						<path d="M66.107 19.085V27.9632C66.107 31.0033 68.0298 31.7745 69.9507 30.3283L72.2565 35.1049C70.9599 36.1664 69.2767 36.8414 67.2582 36.8414C62.1641 36.8414 59.954 33.1743 59.954 27.5767V19.085H56.1104V13.2951H59.954V4.41691L66.1053 2.48633V13.2951H72.2565V19.085H66.1053H66.107Z" fill="#FF3500"></path>
						<path d="M89 12.9087V20.2428C87.5579 19.8563 86.1656 19.8563 84.7714 20.2428C82.5614 20.8697 80.5429 22.9926 80.5429 26.7576V36.455H74.3916V13.2952H80.5429V18.1234C82.1286 15.1794 84.6756 13.199 89 12.9087Z" fill="#FF3500"></path>
						<path d="M29.0556 26.5261C28.3124 24.0559 27.2074 21.8386 25.7707 19.9329C26.4376 19.0584 27.0123 18.0664 27.4752 16.9872C28.0623 15.6265 28.3443 14.0272 28.316 12.2355C28.3071 9.91491 27.7661 7.95406 26.709 6.40817C25.682 4.90681 24.341 3.67972 22.7287 2.75895C16.3008 -0.902735 8.28355 -0.103077 1.20995 0.60219L0.159904 0.705486C0.01978 0.719734 -0.0635849 0.726858 0.064123 11.3094C0.0729916 12.0806 0.0800865 12.622 0.0800865 12.7823V36.8112H6.23845V5.92731C11.2474 5.50522 15.217 5.88635 18.376 7.09385C19.4757 7.52306 21.4392 8.52219 22.2197 10.4011C22.8937 12.0254 22.6259 14.3495 21.6006 15.8456C20.7404 15.2703 19.8589 14.7699 18.9809 14.3567C17.8563 13.8295 16.6626 13.4448 15.4316 13.2133C13.7094 12.882 12.5493 12.9355 11.2971 13.4038C9.54111 14.061 8.38465 15.6942 8.20373 17.7726C8.01926 19.9133 8.86887 21.9971 10.4209 23.2099C12.3755 24.7344 15.1035 25.1743 18.1046 24.4477C18.7662 24.2874 19.4136 24.0897 20.0309 23.8582C20.1356 23.8154 20.4034 23.6979 20.783 23.5269C20.8805 23.4824 20.9923 23.4325 21.104 23.3827H21.1075C21.8969 24.421 22.9504 25.8333 23.3212 27.6249C23.793 29.9135 23.7841 33.2813 23.7238 35.9581L23.7025 36.8575H30.228L30.244 35.9955C30.3132 32.7684 29.8697 29.2296 29.0556 26.5279V26.5261ZM17.2125 19.6373C16.3753 20.1502 15.3625 20.3087 14.2858 20.0968C13.5887 19.9578 12.7445 19.5607 12.6593 18.8964C12.6292 18.6506 12.6859 18.4618 12.8331 18.3193C13.0442 18.1163 13.4291 18.0344 13.8176 18.0344C13.9843 18.0344 14.151 18.0486 14.3053 18.0753C14.5306 18.1145 14.7612 18.1715 14.99 18.2445C15.6516 18.4547 16.3203 18.8287 16.9783 19.3577C17.0298 19.3986 17.1273 19.4823 17.2639 19.6052C17.2479 19.6159 17.2302 19.6266 17.2125 19.6373Z" fill="#FF3500"></path>
						</g>
						<defs>
						<clipPath id="clip0_2835_1506">
						<rect width="89" height="49" fill="white"></rect>
						</clipPath>
						</defs>
					</svg>