<svg width="211" height="62" viewBox="0 0 211 62" fill="none" xmlns="http://www.w3.org/2000/svg">
				<path  d="M31.0769 32.4801V14.4161H19.6943V31.4871C19.6943 34.6843 18.0641 36.349 15.5384 36.349C13.0128 36.349 11.3826 34.6872 11.3826 31.4871V14.4161H0V32.4457C0 42.2928 6.68147 46.928 15.5384 46.928C24.3954 46.928 31.0769 42.3244 31.0769 32.4773M58.7039 30.2386C58.7039 33.8205 56.339 36.3461 53.0758 36.3461C49.8125 36.3461 47.4505 33.8205 47.4505 30.2386C47.4505 26.6568 49.8154 24.1341 53.0758 24.1341C56.3361 24.1341 58.7039 26.6597 58.7039 30.2386ZM70.4367 30.2071C70.4367 21.0631 64.5244 13.5493 55.986 13.5493C51.9909 13.5493 49.3045 15.0848 47.3873 17.2574V14.4132H36.484V58.8846H47.8666V43.8283C49.7522 45.7139 52.3095 46.928 56.0204 46.928C64.4928 46.928 70.4395 39.4171 70.4395 30.2099M74.6987 46.0985H86.0813V0.0629883H74.6987V46.0985ZM91.6463 46.0985H103.029V14.4161H91.6463V46.0985ZM122.209 24.4612L129.049 15.963C127.307 14.4907 124.979 13.5522 121.854 13.5522C113.286 13.5522 107.437 20.6498 107.437 29.4092C107.437 33.1087 108.491 36.504 110.342 39.2018L119.446 27.8938C119.844 26.3469 120.84 25.13 122.209 24.4584M141.212 43.1137L129.347 46.4228C128.027 48.7361 125.283 49.643 122.976 49.643C121.644 49.643 120.39 49.5167 119.184 49.2584L110.723 51.6205L109.039 55.3659C113.037 58.1785 118.407 59.5217 124 59.5217C134.129 59.5217 141.037 53.4717 141.215 43.1137M146.8 46.0956H158.183V38.3781L146.8 41.5524V46.0928V46.0956ZM166.141 46.0956H177.521V32.9824L166.141 36.1567V46.0956ZM211 43.2514L207.197 34.4289C205.759 35.2928 203.808 36.3461 202.048 36.3461C199.586 36.3461 197.795 35.2899 197.795 31.8717V27.3255L186.415 30.4998V33.6253C186.415 41.3945 190.092 46.9251 199.107 46.9251C204.637 46.9251 207.866 45.4556 211 43.2486" fill="#074EFF"></path>
				<path  d="M113.06 46.4201L110.718 51.6264L119.179 49.2643C117.023 48.8023 115.029 47.8953 113.06 46.4201ZM103.856 55.3603C103.856 51.7584 100.937 48.8367 97.332 48.8367C93.7272 48.8367 90.8083 51.7584 90.8083 55.3603C90.8083 58.9622 93.7272 61.8839 97.332 61.8839C100.937 61.8839 103.856 58.9651 103.856 55.3603ZM141.209 43.1167C141.209 42.9789 141.226 42.8498 141.226 42.712V14.4162H130.292L122.207 24.4614C122.947 24.0998 123.782 23.8788 124.698 23.8788C127.832 23.8788 130.036 26.2121 130.036 29.4094C130.036 32.6066 127.832 34.9399 124.698 34.9399C121.564 34.9399 119.23 32.6037 119.23 29.4094C119.23 28.8727 119.317 28.3733 119.44 27.894L110.336 39.202C112.868 42.89 116.9 45.2664 121.848 45.2664C125.685 45.2664 128.305 43.86 130.128 41.8137V43.2516C130.128 44.523 129.829 45.5677 129.339 46.4259L141.203 43.1138L141.209 43.1167ZM166.138 36.1597L177.518 32.9854V25.4774C177.518 18.1875 172.757 13.5524 166.202 13.5524C162.651 13.5524 159.968 14.6717 158.177 16.9103V0H146.797V41.5583L158.177 38.384V29.1252C158.177 25.641 159.936 24.2031 162.14 24.2031C164.666 24.2031 166.136 25.8649 166.136 29.0621V36.1654L166.138 36.1597ZM208.087 24.4557V14.4162H197.792V5.33828H186.412V14.4162H180.658V24.4557H186.412V30.5028L197.792 27.3286V24.4557H208.087Z" fill="#00E4A0"></path>
				<path  d="M210.664 5.64251C210.664 7.14641 209.41 8.39488 207.866 8.39488C206.322 8.39488 205.048 7.14641 205.048 5.64251C205.048 4.13861 206.282 2.89014 207.866 2.89014C209.45 2.89014 210.664 4.12426 210.664 5.64251ZM209.99 5.64251C209.99 4.44857 209.046 3.50433 207.866 3.50433C206.686 3.50433 205.713 4.44857 205.713 5.64251C205.713 6.83645 206.658 7.78643 207.866 7.78643C209.074 7.78643 209.99 6.82784 209.99 5.64251ZM209.051 5.16895C209.051 5.58798 208.756 5.88359 208.236 5.94386L209.071 6.9082H208.417L207.642 5.9496H207.392V6.9082H206.847V4.35099H208.027C208.681 4.35099 209.051 4.66669 209.051 5.16608V5.16895ZM207.392 4.83316V5.51336H208.021C208.311 5.51336 208.492 5.39856 208.492 5.16895C208.492 4.93935 208.311 4.83316 208.021 4.83316H207.392Z" fill="#00E4A0"></path>
				<path  d="M205.048 4.57619H204V4H206.745V4.57619H205.697V7.19524H205.063L205.048 4.57619ZM210.364 4.82762L209.505 6.87047H208.85L207.97 4.85905V7.22143H207.347V4.02619H208.243L209.154 6.1581L210.071 4H210.967V7.19524H210.338L210.364 4.82762Z" fill="#00E4A0"></path>
				</svg>